<?xml version="1.0" standalone="no"?>
<!DOCTYPE svg PUBLIC "-//W3C//DTD SVG 20010904//EN"
 "http://www.w3.org/TR/2001/REC-SVG-20010904/DTD/svg10.dtd">
<svg version="1.0" xmlns="http://www.w3.org/2000/svg"
 width="1408.000000pt" height="768.000000pt" viewBox="0 0 1408.000000 768.000000"
 preserveAspectRatio="xMidYMid meet">

<g transform="translate(0.000000,768.000000) scale(0.100000,-0.100000)"
fill="#000000" stroke="none">
<path d="M8744 7336 c-3 -13 -1 -41 5 -62 31 -110 -7 -240 -79 -277 -29 -15
-47 -17 -110 -11 -153 16 -228 10 -315 -26 -80 -32 -181 -99 -192 -126 -8 -21
-30 -17 -36 6 -10 40 -109 15 -194 -50 l-53 -39 -6 25 c-4 15 -4 66 0 114 5
71 4 89 -8 99 -20 17 -67 6 -140 -32 -78 -42 -144 -102 -202 -188 -52 -76 -74
-81 -26 -5 43 67 56 124 49 216 -6 94 -47 181 -111 236 -66 56 -76 49 -75 -54
1 -157 -38 -206 -185 -231 -38 -7 -81 -18 -95 -26 -43 -22 -102 -73 -132 -114
-44 -59 -99 -213 -99 -275 l0 -53 -57 -6 c-70 -7 -130 -46 -158 -102 -30 -61
-32 -166 -5 -240 12 -33 25 -82 30 -110 7 -49 7 -49 10 -12 1 20 4 42 5 47 1
6 4 16 5 23 2 6 6 -31 10 -83 6 -76 4 -101 -8 -125 -8 -16 -18 -32 -21 -35
-13 -10 -30 -60 -21 -60 6 0 10 -7 10 -16 0 -8 -4 -12 -10 -9 -6 3 -10 -5 -10
-18 0 -27 -27 -44 -43 -28 -14 14 14 89 57 151 21 30 36 64 35 79 l-1 26 -7
-25 c-5 -14 -27 -51 -49 -84 -23 -32 -44 -75 -48 -95 -10 -60 -14 -69 -33 -74
-28 -7 -55 -55 -54 -96 9 -343 20 -392 98 -466 23 -22 45 -52 48 -67 12 -46
90 -150 140 -184 87 -60 149 -78 272 -79 61 0 121 2 134 5 33 7 42 -27 42
-160 -1 -152 -14 -204 -59 -237 -104 -76 -147 -136 -159 -220 -4 -34 -16 -60
-40 -87 -18 -22 -38 -58 -44 -80 -23 -91 -17 -86 -132 -126 -60 -21 -134 -53
-165 -72 -120 -70 -259 -236 -303 -362 -12 -34 -23 -43 -94 -78 -86 -44 -182
-113 -212 -153 l-18 -25 -111 120 c-114 123 -163 199 -199 308 -15 47 -16 67
-6 175 6 67 13 148 14 179 l2 57 150 -91 c269 -162 341 -187 384 -132 31 40
27 78 -14 123 -21 23 -35 49 -35 64 0 18 -12 36 -37 57 -51 43 -373 230 -396
230 -10 0 -20 -7 -23 -15 -9 -23 -24 -19 -97 27 -43 28 -70 52 -76 70 -5 15
-27 46 -49 70 -22 24 -53 76 -70 116 -17 40 -45 92 -62 117 -36 52 -146 152
-198 179 -50 26 -220 67 -252 60 -47 -10 -76 -25 -88 -45 -14 -22 -15 -21 60
-44 24 -8 35 -14 26 -14 -21 -1 -21 -2 -8 -35 5 -14 7 -26 4 -26 -3 0 -52 26
-108 59 -56 32 -146 74 -201 94 -103 37 -240 77 -262 77 -35 0 -2 -46 111
-156 113 -110 141 -130 305 -229 100 -59 184 -112 187 -116 3 -5 -6 -9 -19 -9
-77 0 -169 -56 -204 -124 -16 -30 -14 -128 2 -168 5 -13 2 -18 -9 -18 -27 0
-93 -72 -105 -115 -16 -60 -14 -86 15 -143 22 -45 123 -152 143 -152 4 0 31
-35 59 -79 59 -91 135 -177 187 -212 49 -33 98 -139 191 -413 121 -354 153
-410 361 -613 144 -140 184 -169 247 -180 44 -7 148 21 226 61 36 19 124 64
195 100 72 37 157 86 189 111 33 24 61 43 63 42 5 -6 -46 -187 -86 -301 -23
-65 -55 -182 -71 -260 -17 -77 -39 -179 -49 -226 -30 -130 -41 -260 -41 -474
l0 -194 -68 -103 c-150 -226 -281 -473 -353 -665 -34 -90 -89 -284 -89 -313 0
-15 30 -14 34 2 2 6 13 56 26 110 15 66 30 107 47 127 34 41 46 37 27 -7 -14
-32 -61 -164 -81 -225 -5 -17 70 -18 1476 -18 1481 0 1501 0 1471 30 -3 3 -11
16 -18 28 -23 42 -7 33 26 -13 28 -41 36 -45 72 -45 22 0 40 3 40 6 0 3 -9 18
-20 34 -18 25 -18 31 -6 79 7 28 15 54 18 56 2 3 22 -4 43 -15 22 -11 45 -20
52 -20 22 0 23 -17 3 -75 -24 -69 -23 -65 -6 -65 8 0 18 22 26 60 7 33 16 60
20 60 28 0 48 -75 23 -84 -7 -3 -13 -11 -13 -17 0 -8 5 -7 17 2 15 12 16 12
10 -3 -6 -16 18 -17 334 -18 186 0 339 1 339 3 0 3 -9 40 -20 83 -12 50 -16
80 -9 82 6 3 3 15 -7 30 -9 14 -18 33 -19 41 0 9 -6 27 -13 41 -25 56 -82 208
-82 221 0 7 13 0 30 -16 43 -42 93 -178 150 -410 12 -48 22 -71 33 -73 19 -4
17 12 -19 148 -12 47 -22 85 -21 86 54 29 198 121 260 166 257 191 429 399
578 703 153 314 217 625 191 942 -25 322 -88 507 -286 852 -112 194 -151 278
-177 380 -47 188 14 367 147 431 37 18 58 21 122 18 88 -4 140 -25 216 -88 27
-22 54 -39 60 -37 6 2 11 24 10 49 0 64 -42 130 -114 181 -61 43 -71 57 -45
57 21 0 31 30 14 41 -30 18 -115 20 -189 5 -41 -9 -76 -16 -78 -16 -2 0 -1 14
3 30 10 45 -17 50 -82 15 -50 -26 -86 -58 -158 -140 l-26 -30 6 28 c8 38 -18
47 -51 16 -31 -29 -98 -167 -118 -243 -8 -32 -24 -64 -36 -74 -30 -24 -37 -94
-17 -164 27 -91 28 -125 6 -131 -32 -8 -23 -49 38 -164 41 -78 56 -117 55
-143 -1 -25 8 -52 30 -86 72 -113 89 -146 83 -165 -4 -12 5 -42 23 -77 46 -89
74 -189 60 -212 -10 -16 -8 -31 12 -82 34 -89 38 -160 11 -187 -18 -18 -21
-33 -22 -123 0 -99 -7 -140 -22 -139 -4 1 -11 1 -17 1 -17 0 -39 -57 -50 -132
-10 -68 -36 -148 -48 -148 -3 0 -14 7 -23 16 -37 33 -79 -18 -138 -168 -13
-32 -34 -64 -48 -73 -23 -15 -25 -15 -44 9 -40 51 -91 23 -188 -100 -29 -38
-69 -77 -88 -86 -37 -20 -35 -22 -53 48 -16 66 -32 72 -95 41 -30 -15 -73 -43
-95 -63 -23 -21 -44 -33 -49 -28 -4 5 -20 40 -36 78 -23 56 -26 70 -14 76 8 5
43 31 79 59 36 28 126 96 200 152 164 124 291 251 346 344 22 39 60 117 84
175 37 90 43 115 43 175 0 89 -22 143 -146 364 -51 91 -104 186 -116 211 -50
95 -153 239 -234 327 -80 86 -87 96 -112 177 -14 48 -49 133 -77 189 -85 167
-232 297 -393 347 -51 16 -66 29 -133 118 -39 54 -51 77 -43 85 16 16 13 69
-6 96 -35 51 -60 112 -55 136 2 14 -5 42 -16 64 -17 33 -19 45 -10 80 15 61 3
109 -34 129 l-30 17 6 77 c9 109 10 111 61 103 34 -5 44 -3 49 10 20 54 -8
195 -61 298 -18 37 -23 61 -21 100 l3 52 57 0 c72 0 80 8 67 63 -10 45 -67
167 -101 215 -11 16 -19 29 -17 30 2 2 26 8 53 15 87 22 144 53 191 103 50 53
56 76 23 83 -102 20 -169 40 -212 64 -27 16 -51 33 -53 38 -2 5 25 19 59 32
168 60 293 227 316 423 5 36 6 71 4 77 -6 20 -35 13 -82 -19 -62 -42 -135 -78
-189 -95 -51 -15 -211 -31 -211 -20 0 21 56 112 98 160 60 68 115 111 202 157
243 128 328 421 200 685 -33 67 -107 144 -140 144 -12 0 -22 -9 -26 -24z m91
-83 c14 -30 15 -37 4 -44 -28 -18 -38 -8 -45 41 -7 50 -19 65 -27 33 -3 -10
-5 -1 -6 20 l-1 37 29 -26 c17 -14 37 -42 46 -61z m-1550 -145 c-1 -19 -4 -39
-7 -44 -3 -5 -8 -26 -12 -46 -4 -21 -11 -38 -15 -38 -4 0 -21 -11 -36 -24 -26
-23 -75 -40 -75 -27 0 3 17 15 38 26 59 32 87 99 86 205 l-1 85 12 -51 c7 -28
11 -67 10 -86z m50 42 c32 -63 32 -80 0 -80 -22 0 -25 4 -25 33 0 17 -4 47 -9
65 -14 49 5 39 34 -18z m1519 34 c9 -3 14 -10 11 -14 -3 -4 -1 -28 3 -52 l9
-44 -41 10 c-40 9 -41 11 -38 45 6 53 21 68 56 55z m-78 -89 c-4 -14 -10 -25
-15 -25 -5 0 -4 16 2 36 12 39 23 29 13 -11z m-1362 -50 c20 -75 20 -118 0
-185 -16 -53 -53 -120 -66 -120 -14 0 -8 27 11 51 41 53 52 89 52 167 0 46 -6
95 -16 122 -9 25 -11 40 -6 35 6 -6 17 -37 25 -70z m-60 9 c20 -8 21 -28 1
-44 -8 -7 -15 -20 -15 -30 0 -14 -6 -17 -22 -13 -49 10 -50 12 -29 34 11 12
18 26 15 31 -13 21 17 35 50 22z m1503 -5 c8 -8 6 -23 -8 -57 -17 -38 -18 -51
-9 -72 11 -24 10 -23 -22 6 -18 18 -46 39 -63 47 -25 13 -26 16 -9 17 27 0 44
19 44 47 0 19 5 23 28 23 15 0 33 -5 39 -11z m-103 -11 c-16 -28 -48 -58 -63
-58 -10 0 -2 13 22 35 40 36 53 44 41 23z m-1004 -143 c-5 -38 -7 -86 -4 -105
3 -19 7 -46 9 -60 4 -23 3 -22 -10 5 -17 36 -19 135 -4 188 22 82 -21 52 -47
-31 -10 -31 -27 -66 -39 -77 -11 -11 -27 -35 -34 -53 -11 -25 -16 -30 -23 -20
-7 9 -11 9 -14 2 -3 -6 -12 -20 -20 -30 -14 -18 -15 -18 -9 4 9 32 -7 26 -30
-11 -32 -52 -115 -82 -115 -42 0 6 7 26 16 44 23 46 11 49 -17 5 -13 -21 -25
-32 -27 -25 -6 19 61 111 127 174 83 80 209 140 238 113 9 -8 9 -29 3 -81z
m800 62 c33 -16 33 -17 5 -10 -16 5 -83 8 -148 8 -64 0 -117 1 -117 3 0 26
205 26 260 -1z m391 -94 c-21 -111 -86 -211 -179 -275 -25 -17 -43 -27 -40
-22 19 43 35 63 66 87 22 17 38 23 42 17 6 -10 30 30 30 51 0 6 15 42 34 80
19 39 38 96 43 127 6 45 8 50 11 25 2 -18 -2 -58 -7 -90z m-222 96 c43 -10 81
-33 81 -49 0 -7 -41 -22 -65 -24 -5 -1 -10 -16 -10 -33 0 -18 -2 -29 -5 -25
-66 84 -88 107 -112 122 l-29 17 47 1 c26 1 68 -3 93 -9z m-1422 -7 c9 -6 6
-15 -10 -36 l-23 -29 -35 19 c-29 15 -31 19 -14 22 11 3 29 11 40 18 22 16 26
16 42 6z m1223 -25 c14 -6 31 -9 38 -8 6 1 12 -3 12 -9 0 -5 9 -10 21 -10 15
0 19 4 15 16 -12 30 37 -9 58 -47 11 -19 16 -31 12 -27 -4 3 -23 0 -42 -8 -34
-14 -54 -12 -54 7 0 5 11 14 23 20 13 6 24 17 24 25 0 17 3 17 -40 -1 -19 -8
-37 -11 -41 -8 -10 10 -7 -17 5 -39 17 -31 29 -78 20 -78 -4 0 -13 11 -19 24
-17 38 -82 106 -132 138 l-45 29 60 -7 c33 -3 71 -11 85 -17z m-230 3 c-11 -7
-6 -8 16 -4 59 11 165 -52 200 -118 18 -34 18 -39 -1 -32 -8 4 -15 1 -15 -5 0
-6 -7 -11 -16 -11 -9 0 -18 -8 -21 -17 -2 -10 -20 -29 -39 -43 -29 -22 -33
-29 -28 -55 6 -28 4 -27 -29 16 -43 56 -115 111 -177 135 -57 22 -55 20 -36
40 26 26 9 30 -18 5 -15 -14 -33 -21 -48 -19 -20 3 -16 8 35 46 32 24 72 50
90 57 38 17 111 21 87 5z m-1177 -22 c-33 -16 -28 -28 10 -28 34 0 66 -15 55
-25 -6 -6 -84 13 -103 25 -16 11 -81 3 -112 -14 -23 -13 -25 -15 -8 -16 15 0
9 -7 -20 -23 -26 -15 -39 -29 -37 -40 2 -9 -3 -17 -11 -17 -14 0 -44 -46 -36
-54 8 -8 84 40 82 52 -2 6 11 23 27 38 16 15 27 31 24 36 -14 22 126 22 148 0
8 -8 4 -9 -12 -5 -19 5 -21 3 -15 -16 4 -14 2 -21 -6 -21 -7 0 -2 -11 11 -25
l24 -25 -31 6 c-43 9 -167 -13 -216 -37 -23 -12 -57 -35 -75 -53 l-33 -31 17
40 c43 104 80 153 146 196 57 37 89 47 148 47 39 1 42 -1 23 -10z m891 -67 c3
-5 -10 -12 -29 -15 -19 -4 -35 -11 -35 -16 0 -15 -42 -50 -53 -43 -6 3 -7 1
-3 -5 6 -11 -51 -48 -60 -39 -3 2 8 20 23 38 l28 34 -32 -23 c-18 -13 -35 -27
-38 -32 -4 -6 -11 -10 -17 -10 -16 0 30 47 70 72 32 20 103 46 129 47 6 1 14
-3 17 -8z m177 -73 c74 -34 132 -84 123 -110 -3 -10 0 -26 8 -36 7 -9 0 -6
-17 7 -34 26 -96 54 -103 46 -3 -2 -6 -23 -7 -46 -1 -23 -7 -44 -13 -48 -6 -3
-10 -15 -9 -26 2 -16 -4 -20 -28 -21 -16 -1 -38 -4 -47 -9 -26 -11 -35 22 -16
56 15 25 15 28 1 33 -10 4 -13 2 -10 -7 3 -7 -1 -24 -8 -37 -7 -13 -11 -30 -8
-37 7 -19 -62 -17 -81 2 -8 8 -22 15 -31 15 -24 0 -30 29 -9 45 27 20 39 18
52 -7 l11 -23 0 23 c1 12 -6 25 -14 28 -19 8 -19 38 -1 53 7 6 21 9 30 5 9 -3
16 -2 16 4 0 6 -5 12 -11 14 -9 3 -9 9 0 25 14 27 49 39 65 23 8 -9 4 -17 -17
-36 -23 -19 -25 -24 -10 -23 10 0 28 13 40 28 l23 29 -23 24 c-40 43 -93 27
-214 -64 -24 -17 -45 -29 -48 -27 -6 6 124 105 156 119 38 16 138 5 200 -22z
m-861 -45 c9 -35 15 -63 13 -63 -2 0 -13 19 -23 43 l-20 42 0 -117 c0 -67 -4
-119 -10 -123 -10 -6 -14 7 -11 32 3 24 -17 22 -22 -2 -2 -14 0 -28 5 -31 5
-3 -1 -18 -14 -31 -38 -42 -139 -113 -150 -107 -6 4 -9 38 -6 85 4 65 11 91
43 155 42 86 132 188 160 182 12 -2 23 -23 35 -65z m-235 7 c11 -5 14 -9 8 -9
-7 -1 -13 -6 -13 -12 0 -7 -8 -18 -17 -25 -17 -13 -17 -13 0 -14 9 0 17 -5 17
-10 0 -18 -30 -23 -55 -10 -17 9 -28 9 -41 1 -18 -10 -18 -10 -1 -11 10 0 15
-5 12 -10 -4 -7 3 -8 20 -4 21 5 27 4 23 -7 -5 -17 -100 -81 -107 -72 -4 3 0
8 7 10 17 6 15 23 -3 23 -18 0 -19 14 -4 43 l12 22 -25 -22 c-37 -35 -46 -27
-11 10 17 17 34 43 37 57 l7 25 -25 -27 c-29 -32 -33 -34 -38 -12 -5 25 -54
-18 -78 -69 -23 -48 -24 -51 -7 -41 8 6 8 3 -2 -9 -7 -9 -11 -24 -7 -32 8 -22
-11 -65 -29 -65 -11 0 -15 11 -15 38 0 63 18 106 63 150 68 67 209 109 272 82z
m858 -91 c-7 -25 -26 -34 -50 -24 -15 6 -15 8 -3 13 8 3 21 11 28 19 20 19 31
16 25 -8z m319 -6 c18 -16 25 -39 9 -29 -5 3 -11 -1 -15 -9 -3 -8 -12 -12 -19
-9 -10 3 -16 -5 -21 -28 -5 -26 -9 -30 -16 -18 -9 14 -7 46 6 93 7 22 32 22
56 0z m-943 -77 c-5 -6 -9 7 -8 35 l1 44 8 -35 c5 -20 5 -39 -1 -44z m1381 9
c-23 -25 -120 -88 -120 -78 0 20 24 82 31 78 4 -3 11 0 15 6 5 8 9 8 14 -1 6
-9 18 -2 42 25 31 36 33 37 36 16 2 -13 -5 -33 -18 -46z m-818 13 c-6 -6 -19
-7 -29 -3 -17 7 -17 8 2 15 24 9 41 2 27 -12z m-827 -13 c-16 -13 -39 -33 -51
-45 -12 -11 -26 -20 -31 -20 -6 0 -28 -12 -49 -27 -71 -49 -115 -69 -99 -44
15 25 231 162 254 161 3 0 -7 -12 -24 -25z m525 -22 c0 -16 -16 -30 -62 -56
-65 -38 -157 -125 -217 -206 -51 -69 -81 -149 -81 -218 0 -31 -1 -32 -25 -21
-30 14 -38 36 -31 91 l5 42 -12 -42 c-16 -54 -20 -57 -55 -39 -16 8 -32 12
-36 9 -3 -4 -6 1 -6 10 0 10 -4 17 -10 17 -31 0 10 87 45 96 14 3 25 10 25 15
0 6 -8 5 -19 -1 -11 -5 -30 -10 -42 -10 -20 0 -21 3 -15 50 6 46 -4 68 -18 38
-3 -7 -3 1 1 17 8 42 22 55 29 27 12 -42 50 -28 157 60 70 57 91 62 47 11 -63
-76 -68 -83 -60 -83 4 0 25 21 45 46 42 51 95 79 132 69 19 -4 30 0 48 20 15
18 30 26 46 23 22 -3 19 -6 -23 -31 -70 -42 -81 -65 -13 -27 33 18 65 39 71
47 6 7 17 13 25 14 10 0 11 2 2 6 -18 7 -16 21 5 26 28 8 42 7 42 0z m-140 -9
c0 -10 -82 -54 -90 -49 -20 13 29 54 61 52 16 -1 29 -3 29 -3z m1120 -29 c-9
-41 -23 -64 -73 -120 l-36 -40 -1 32 c0 21 7 37 23 50 13 10 32 32 42 48 19
30 46 65 50 65 2 0 -1 -16 -5 -35z m-860 15 c0 -5 13 -10 28 -10 17 0 37 -9
48 -21 19 -21 18 -21 -6 -40 -14 -10 -30 -23 -37 -29 -7 -5 -16 -10 -20 -10
-4 0 -26 -14 -47 -30 -50 -38 -65 -38 -72 0 -4 16 -13 35 -21 41 -11 10 -12 8
-3 -15 5 -15 10 -37 10 -49 0 -22 -36 -67 -55 -67 -6 0 -24 -13 -40 -30 -31
-32 -53 -38 -73 -18 -17 17 -15 -2 3 -22 8 -9 12 -25 8 -39 -3 -13 -9 -18 -13
-12 -4 7 -21 -4 -44 -29 -36 -39 -39 -40 -56 -25 -15 13 -18 29 -16 69 2 44
10 61 44 107 76 98 86 109 100 104 7 -2 11 -1 8 4 -3 4 9 21 27 38 56 52 227
115 227 83z m137 4 c-3 -3 -12 -4 -19 -1 -8 3 -5 6 6 6 11 1 17 -2 13 -5z m12
-24 c35 -10 81 -46 81 -63 0 -5 -13 -7 -30 -3 -16 3 -30 2 -30 -3 0 -4 -6 -8
-12 -8 -7 0 -23 -3 -35 -7 -21 -7 -23 -4 -23 28 0 19 -3 41 -6 50 -7 19 7 20
55 6z m226 -10 c3 -5 -3 -10 -15 -10 -12 0 -18 5 -15 10 3 6 10 10 15 10 5 0
12 -4 15 -10z m115 -4 c0 -3 -4 -8 -10 -11 -5 -3 -10 -1 -10 4 0 6 5 11 10 11
6 0 10 -2 10 -4z m-1405 -57 c15 -7 9 -8 -25 -6 -58 4 -106 -9 -147 -40 -36
-28 -39 -35 -20 -55 7 -7 19 -28 26 -46 8 -18 17 -35 22 -38 5 -2 1 12 -7 32
-8 20 -13 41 -11 47 3 7 11 -3 18 -22 6 -19 33 -78 59 -130 46 -92 70 -159 70
-191 -1 -8 -16 24 -34 72 -18 48 -45 103 -59 122 -28 36 -78 76 -95 76 -6 0
-13 6 -15 13 -3 6 -6 1 -6 -13 -1 -15 -6 -31 -12 -37 -9 -9 -9 -23 1 -56 6
-25 10 -53 8 -63 -4 -16 -7 -14 -18 11 -9 18 -14 68 -14 127 -1 92 0 97 29
133 43 53 89 75 155 74 30 0 64 -5 75 -10z m245 -28 c0 -12 -20 -25 -27 -18
-7 7 6 27 18 27 5 0 9 -4 9 -9z m-246 -41 c21 -23 36 -46 33 -53 -2 -6 4 -20
14 -30 32 -35 36 -126 7 -184 -16 -33 -32 -28 -51 13 -14 28 -15 39 -6 50 9
12 9 13 -3 9 -21 -8 -77 100 -60 117 19 19 14 33 -6 15 -21 -19 -42 -6 -42 24
0 10 -5 19 -11 21 -7 2 -9 13 -4 27 4 12 12 20 19 18 7 -3 19 -1 27 4 26 16
46 9 83 -31z m1621 -87 l-16 -28 6 28 c3 15 9 48 13 75 l7 47 3 -47 c2 -30 -3
-57 -13 -75z m-1450 97 c-3 -5 -11 -10 -16 -10 -6 0 -7 5 -4 10 3 6 11 10 16
10 6 0 7 -4 4 -10z m15 -92 c0 -21 -8 -32 -31 -44 -24 -12 -31 -13 -27 -3 36
91 41 100 49 87 5 -7 9 -25 9 -40z m1864 31 c-10 -12 -18 -30 -16 -40 4 -23
-38 -93 -58 -97 -8 -2 -24 -14 -35 -27 -20 -24 -43 -35 -30 -15 3 6 2 10 -2
10 -5 0 -17 -14 -27 -31 -20 -34 -57 -53 -69 -35 -5 8 -10 6 -17 -5 -6 -11
-18 -15 -34 -12 -14 3 -38 -2 -55 -10 -30 -15 -31 -15 -52 14 -17 24 -18 32
-7 46 7 10 23 18 34 19 12 1 33 4 48 8 16 4 26 2 26 -5 0 -6 7 -3 16 5 8 9 22
16 30 16 13 0 34 9 74 32 8 4 25 13 38 18 34 15 114 71 109 77 -3 2 -23 -7
-45 -21 -53 -33 -144 -63 -212 -70 -69 -8 -56 -1 38 18 75 15 173 59 227 102
37 29 44 31 19 3z m26 -106 c-17 -51 -71 -153 -81 -153 -13 0 -11 9 9 30 9 10
31 55 47 99 30 79 48 97 25 24z m-1851 12 c17 -23 18 -30 8 -67 -18 -61 -58
-57 -48 5 1 4 2 25 3 47 2 47 9 50 37 15z m752 -15 c10 -6 19 -17 19 -25 0
-11 -14 -15 -57 -15 -36 0 -75 -8 -102 -20 -53 -25 -54 -25 -41 0 16 31 78 58
153 69 5 0 17 -4 28 -9z m-1125 -83 c1 -7 -9 -20 -22 -30 -23 -17 -24 -17 -24
2 0 11 7 27 16 36 17 16 27 14 30 -8z m1775 -31 c-12 -31 -17 -32 -24 -6 -3
11 -2 18 3 15 4 -3 11 2 14 11 4 9 9 15 12 12 2 -3 0 -17 -5 -32z m-652 -15
c8 -14 7 -20 -3 -24 -19 -7 -51 17 -42 31 11 18 34 14 45 -7z m90 -3 c30 -31
34 -53 18 -85 -18 -34 -41 -55 -84 -77 -44 -22 -46 -20 -13 12 34 34 47 91 32
138 -9 30 -8 34 9 34 10 0 27 -10 38 -22z m-814 -8 c4 -6 -6 -10 -22 -10 -22
0 -25 2 -13 10 19 12 27 12 35 0z m595 -8 c0 -26 -11 -34 -27 -21 -10 9 -10
15 -2 25 16 19 29 17 29 -4z m-987 -39 c-12 -59 -6 -104 17 -136 28 -37 17
-48 -16 -16 -41 41 -52 137 -21 177 19 24 28 12 20 -25z m531 17 c5 -5 17 -10
26 -10 9 0 35 -14 57 -31 37 -29 40 -34 31 -55 -6 -13 -20 -24 -30 -24 -11 0
-16 -4 -13 -10 7 -12 -20 -65 -42 -82 -10 -7 -23 -22 -29 -33 -7 -11 -21 -20
-31 -19 -15 0 -19 -5 -15 -18 3 -11 -1 -18 -11 -18 -8 0 -18 -7 -21 -16 -4
-10 -13 -13 -25 -9 -30 9 -99 -13 -149 -47 -50 -35 -102 -110 -101 -147 0 -22
2 -20 16 14 47 118 181 200 247 152 20 -15 36 -127 17 -127 -6 0 -11 -6 -11
-13 0 -8 -10 -23 -22 -34 -28 -25 -159 -105 -165 -100 -9 10 42 58 92 86 78
44 116 111 80 141 -12 10 -24 9 -60 -4 -69 -27 -135 -116 -135 -182 0 -15 -6
-24 -15 -24 -8 0 -15 5 -15 10 0 6 -4 10 -10 10 -16 0 -12 -14 11 -39 15 -16
24 -19 29 -11 5 8 11 7 23 -4 14 -15 18 -14 39 7 13 13 42 27 64 31 21 4 63
21 91 37 59 32 78 36 69 14 -6 -18 5 -20 21 -4 15 15 37 1 24 -14 -5 -7 -11
-23 -13 -37 l-3 -25 -17 30 -16 30 -36 -38 c-20 -21 -36 -45 -36 -53 0 -8 -7
-14 -16 -14 -10 0 -7 -7 12 -23 37 -32 27 -65 -17 -59 -17 2 -33 11 -36 18 -4
11 -9 10 -22 -5 -12 -14 -25 -18 -53 -14 -21 3 -35 9 -32 14 3 5 -4 9 -15 9
-12 0 -21 6 -21 13 0 6 -5 4 -11 -6 -6 -9 -15 -15 -20 -12 -5 4 -7 11 -4 16 4
5 -6 9 -20 9 -19 0 -26 4 -22 14 5 14 -18 31 -36 27 -5 -1 -7 4 -5 11 3 7 17
14 31 16 31 4 37 32 11 53 -13 11 -14 9 -9 -14 6 -22 4 -27 -10 -27 -10 0 -24
8 -32 18 -13 16 -14 15 -10 -5 3 -13 1 -26 -4 -29 -5 -3 -9 1 -9 8 0 10 -2 10
-9 -1 -7 -11 -10 -9 -16 8 -3 12 -10 19 -15 16 -5 -3 -15 4 -24 16 -8 12 -20
19 -28 17 -12 -4 -48 27 -48 41 1 19 19 31 36 24 18 -7 18 -6 2 11 -10 9 -18
31 -18 47 0 16 -3 29 -7 29 -5 0 -8 -19 -8 -42 0 -36 -3 -43 -20 -43 -16 0
-21 8 -23 43 -2 32 0 42 12 42 9 0 13 6 10 14 -3 9 8 28 25 45 33 32 46 37 56
22 3 -6 21 -1 41 11 36 21 41 38 6 19 -37 -20 -44 -11 -12 15 21 18 28 30 21
38 -14 16 -1 33 32 41 32 8 32 8 12 -38 -18 -45 -19 -42 3 -44 12 -1 17 7 18
29 2 42 35 72 79 71 31 -1 34 1 19 11 -15 12 -15 15 0 44 23 45 58 65 98 58
l33 -7 -33 15 -33 16 18 31 c20 34 48 49 94 49 19 0 28 4 24 10 -9 14 74 5 89
-10z m-229 -50 c-18 -36 -31 -50 -46 -50 -18 0 -16 6 21 50 23 28 44 50 46 50
2 0 -7 -22 -21 -50z m-259 4 c-5 -13 -10 -14 -18 -6 -6 6 -8 18 -4 28 5 13 10
14 18 6 6 -6 8 -18 4 -28z m1350 25 c-14 -9 -16 -13 -5 -20 8 -5 18 -1 27 12
15 22 28 24 46 7 12 -11 10 -15 -8 -25 l-21 -12 22 -1 c12 0 25 -5 28 -11 9
-13 -23 -49 -44 -50 -11 0 -9 -3 5 -9 35 -14 40 -31 14 -52 -15 -12 -18 -18
-7 -18 8 0 20 7 27 15 14 17 56 20 65 5 3 -6 -2 -13 -12 -16 -10 -3 -31 -12
-48 -19 -36 -16 -70 -27 -70 -23 0 2 -15 -8 -34 -22 -27 -19 -33 -20 -28 -7 4
11 1 17 -8 17 -8 0 -15 -7 -15 -15 0 -23 -47 -42 -70 -28 -15 10 -17 9 -13 -8
4 -14 -3 -22 -28 -33 -18 -8 -38 -12 -44 -9 -7 2 -17 -3 -24 -11 -7 -8 -19
-12 -27 -9 -9 3 -14 -2 -14 -16 0 -12 -2 -21 -4 -21 -2 0 -13 -3 -23 -7 -16
-6 -16 -5 -4 10 8 10 11 20 7 24 -3 3 -6 1 -6 -5 0 -6 -10 -14 -22 -18 -20 -6
-21 -7 -4 -19 14 -11 15 -17 6 -34 -14 -28 -26 -26 -46 4 -9 14 -23 25 -30 25
-8 0 -14 5 -14 10 0 6 -9 10 -19 10 -46 0 -67 30 -40 57 8 8 5 14 -11 23 -20
11 -21 10 -15 -10 4 -12 1 -27 -5 -35 -9 -11 -9 -15 -1 -15 16 0 14 -25 -4
-40 -17 -14 -55 -4 -55 14 0 8 7 19 15 26 10 9 12 16 5 25 -6 7 -5 18 5 32 13
18 13 22 0 33 -17 14 -20 40 -5 40 5 0 7 7 4 15 -8 19 -1 19 61 -1 28 -8 86
-15 130 -16 67 -1 89 3 140 26 65 29 145 100 145 127 0 10 8 25 18 35 9 10 18
21 18 26 1 4 2 13 3 18 0 6 13 10 29 10 24 -1 25 -2 8 -11z m708 -13 c-18 -28
-64 -65 -111 -90 -56 -28 -50 -17 12 23 33 21 71 50 84 65 31 33 36 33 15 2z
m-963 -39 c-10 -28 -67 -67 -98 -67 -34 0 -80 29 -87 54 -8 30 -2 30 39 1 21
-14 43 -25 50 -25 16 0 51 40 60 68 6 22 8 22 25 7 13 -12 16 -23 11 -38z
m-992 -38 c-51 -75 -224 -253 -256 -263 -23 -7 -31 -30 -14 -40 13 -8 22 -97
13 -131 -9 -29 -10 -28 -51 54 -23 45 -44 81 -47 78 -3 -2 14 -42 36 -88 22
-45 40 -90 40 -98 -1 -9 -11 9 -24 39 -36 86 -56 121 -66 115 -18 -11 -10 -70
15 -117 29 -55 31 -66 9 -47 -15 12 -16 10 -11 -16 3 -17 9 -55 12 -85 8 -73
51 -177 76 -183 27 -7 24 -27 -4 -27 -62 0 -120 146 -116 289 1 42 -1 103 -5
136 -9 82 4 105 75 128 65 20 173 114 261 225 90 114 127 134 57 31z m1090 21
c-26 -47 -42 -62 -84 -84 -17 -9 -24 -16 -17 -16 18 0 72 28 102 54 24 20 24
20 7 0 -9 -11 -15 -23 -12 -26 3 -3 -25 -20 -62 -38 -47 -22 -83 -32 -115 -32
-52 0 -78 10 -58 22 7 5 -27 12 -76 16 l-89 8 110 8 c144 11 205 30 263 84 26
24 48 43 50 44 2 0 -7 -18 -19 -40z m301 19 c0 -24 -23 -21 -28 4 -2 10 3 17
12 17 10 0 16 -9 16 -21z m-566 -73 l31 -16 -40 0 c-83 0 -98 15 -74 77 l10
28 21 -37 c12 -21 35 -44 52 -52z m-914 -1 c0 -8 -4 -15 -10 -15 -12 0 -30 33
-30 56 0 16 2 15 20 -4 11 -12 20 -28 20 -37z m1481 35 c15 -9 17 -15 9 -30
-14 -25 -52 -26 -74 -1 -17 18 -17 20 1 30 23 13 40 14 64 1z m-1313 -49 c-13
-26 -30 -43 -50 -50 -41 -14 -45 -8 -11 14 27 17 50 46 44 54 -3 4 21 21 30
21 4 0 -2 -18 -13 -39z m-48 15 c0 -2 -9 -6 -20 -9 -11 -3 -20 -1 -20 4 0 5 9
9 20 9 11 0 20 -2 20 -4z m1559 -33 c10 -21 24 -62 30 -91 14 -66 14 -199 1
-207 -5 -3 -10 -11 -10 -16 0 -6 5 -7 11 -3 19 11 1 -81 -32 -167 -51 -132
-130 -233 -216 -278 -38 -19 -26 1 32 55 86 81 160 200 181 292 10 42 16 85
15 96 -2 10 3 22 10 27 18 11 -4 211 -31 279 -23 59 -18 66 9 13z m-1734 -41
c-7 -7 -34 18 -47 42 -8 16 -3 14 21 -8 17 -16 29 -32 26 -34z m-55 0 c0 -15
-2 -15 -10 -2 -13 20 -13 33 0 25 6 -3 10 -14 10 -23z m-22 -38 c-1 -35 -2
-35 -14 -12 -9 16 -9 27 -2 35 16 19 18 16 16 -23z m2040 -38 c24 -9 73 -21
108 -27 63 -11 64 -12 51 -32 -7 -11 -29 -32 -48 -46 l-34 -25 34 37 35 37
-25 0 c-59 0 -239 85 -239 113 0 4 17 -4 38 -17 20 -14 57 -32 80 -40z m-1145
1 c16 -11 16 -15 3 -32 -12 -16 -16 -17 -30 -6 -19 16 -21 51 -3 51 7 0 21 -6
30 -13z m1171 -43 c83 -28 84 -36 8 -49 -28 -4 -48 -3 -57 5 -8 7 -26 10 -40
8 -32 -7 -59 22 -50 52 8 26 21 24 139 -16z m-1257 -10 c-9 -9 -28 6 -21 18 4
6 10 6 17 -1 6 -6 8 -13 4 -17z m68 -7 c19 -15 13 -37 -9 -37 -18 0 -39 27
-31 40 8 13 17 13 40 -3z m-61 -38 c-8 -14 -21 -11 -21 5 0 8 6 12 14 9 7 -3
10 -9 7 -14z m821 -1 c14 -6 25 -15 25 -19 0 -5 6 -6 13 -3 10 3 19 -12 31
-49 14 -45 15 -62 5 -101 -6 -25 -15 -46 -20 -46 -5 0 -9 5 -9 10 0 6 -4 10
-10 10 -5 0 -10 -12 -10 -26 0 -16 -13 -39 -34 -60 -33 -33 -34 -34 -73 -20
-37 13 -40 13 -53 -8 -12 -19 -12 -20 3 -7 21 17 64 7 69 -17 3 -12 -12 -24
-52 -44 -59 -30 -80 -34 -80 -18 0 7 -6 7 -17 2 -10 -5 -27 -6 -38 -1 -33 13
-41 10 -17 -7 22 -15 22 -17 5 -30 -10 -7 -26 -14 -36 -14 -10 0 -15 -4 -12
-10 3 -5 -3 -10 -14 -10 -12 0 -21 -4 -21 -10 0 -5 -7 -10 -15 -10 -8 0 -15 6
-15 13 0 9 -2 9 -9 -1 -11 -17 -62 -44 -70 -36 -3 3 10 19 29 35 27 22 31 29
17 29 -11 0 -32 -14 -49 -32 -30 -32 -68 -47 -68 -27 0 7 -7 8 -17 4 -20 -8
-61 -15 -115 -18 -20 -1 -43 -9 -50 -17 -7 -9 -22 -23 -33 -30 -17 -13 -17
-11 3 14 12 16 22 34 22 40 0 6 -9 0 -20 -14 -10 -14 -24 -25 -30 -25 -6 0
-14 -4 -18 -10 -8 -11 -85 -55 -97 -55 -4 0 -2 7 5 15 6 8 8 19 4 26 -5 8 -11
4 -20 -12 -13 -27 -60 -56 -70 -46 -4 4 -1 15 6 24 7 10 -7 -3 -32 -29 -31
-33 -54 -48 -71 -48 -14 0 -27 -4 -29 -8 -5 -15 -58 -24 -58 -10 0 9 -3 9 -12
0 -14 -14 -108 -16 -108 -2 0 6 -9 10 -21 10 -11 0 -30 5 -42 11 -21 10 -21 9
-3 -5 10 -8 24 -17 30 -19 6 -2 8 -7 5 -11 -4 -4 -28 2 -55 12 -46 17 -49 20
-47 51 1 22 -2 30 -9 23 -14 -14 -47 -3 -59 20 -7 12 -17 17 -28 13 -10 -3
-24 1 -31 10 -7 8 -15 13 -19 11 -3 -2 -22 4 -41 14 l-35 18 55 16 c69 20 155
20 304 -1 206 -29 313 -1 481 126 110 83 131 95 231 121 126 34 156 52 250
158 47 54 104 107 126 120 46 25 130 30 173 10z m190 -7 c3 -5 2 -12 -3 -15
-5 -3 -9 1 -9 9 0 17 3 19 12 6z m-961 -7 c9 -3 16 -10 16 -14 0 -10 -38 -1
-46 11 -6 10 7 12 30 3z m163 -20 c3 -8 1 -20 -4 -25 -14 -14 -63 7 -63 26 0
21 59 20 67 -1z m-193 -3 c27 -10 29 -37 3 -38 -27 -3 -47 14 -40 33 6 16 9
16 37 5z m244 -47 c-10 -9 -41 24 -33 35 5 9 11 7 22 -9 8 -12 13 -23 11 -26z
m-249 -18 c10 -12 9 -13 -8 -9 -16 4 -19 1 -14 -18 4 -15 3 -20 -5 -15 -17 10
-15 56 2 56 7 0 19 -6 25 -14z m-144 -56 c-3 -6 -10 -10 -16 -10 -10 0 -12 33
-2 44 9 9 26 -22 18 -34z m1299 -69 c29 -50 66 -141 66 -163 0 -4 -4 -8 -8 -8
-5 0 -16 25 -26 57 -10 31 -38 88 -62 127 -24 39 -44 75 -44 81 1 15 37 -31
74 -94z m-1954 15 c-1 -21 -1 -21 -12 -1 -6 11 -16 23 -21 26 -5 4 -6 12 -2
19 10 17 35 -15 35 -44z m643 7 c-7 -2 -13 -13 -13 -24 0 -10 -4 -19 -9 -19
-5 0 -8 6 -7 13 3 20 16 37 29 36 9 0 9 -2 0 -6z m1251 -64 c48 -64 52 -74 36
-84 -5 -3 -10 -2 -10 3 0 5 -20 19 -44 32 -24 12 -46 31 -49 41 -5 20 7 26 18
9 3 -5 20 -19 38 -31 29 -20 27 -17 -10 22 -41 43 -54 69 -34 69 5 0 30 -27
55 -61z m-1330 42 c3 -5 -1 -14 -9 -21 -8 -7 -15 -26 -15 -42 0 -23 -4 -29
-17 -26 -27 5 -27 43 -2 72 24 27 34 32 43 17z m1116 -14 c0 -2 -8 -19 -17
-38 -16 -31 -18 -32 -21 -11 -4 23 13 52 29 52 5 0 9 -2 9 -3z m-83 -112 c-14
-20 -28 -32 -31 -27 -9 14 11 63 32 78 28 21 27 -9 -1 -51z m-1017 35 c0 -5
-5 -10 -11 -10 -5 0 -7 5 -4 10 3 6 8 10 11 10 2 0 4 -4 4 -10z m-44 -52 c-19
-26 -20 -20 -5 19 6 15 13 22 16 16 2 -7 -3 -23 -11 -35z m904 -58 c0 -5 -7
-10 -15 -10 -8 0 -24 -9 -35 -20 -11 -11 -22 -20 -24 -20 -8 0 8 45 18 52 16
11 56 10 56 -2z m429 -97 c-1 -65 -4 -89 -9 -73 -12 37 -12 170 0 170 6 0 10
-39 9 -97z m-1889 -47 c0 -25 51 -113 83 -144 76 -72 167 -99 342 -103 100 -2
45 -17 -66 -18 -188 -2 -318 73 -385 224 l-24 55 25 0 c15 0 25 -6 25 -14z
m1540 4 c-8 -5 -19 -10 -25 -10 -5 0 -3 5 5 10 8 5 20 10 25 10 6 0 3 -5 -5
-10z m431 -129 c11 -32 19 -79 18 -115 l-1 -61 -13 70 c-7 39 -19 86 -28 106
-8 20 -18 56 -21 80 l-7 44 17 -35 c9 -19 25 -59 35 -89z m-81 -38 c0 -46 -3
-83 -7 -83 -5 0 -8 -28 -9 -62 -1 -93 -14 -230 -23 -246 -16 -29 -21 52 -7
112 8 33 11 69 7 80 -9 25 -2 109 10 116 5 3 5 28 1 55 -4 28 -6 75 -4 104 4
52 5 54 18 30 8 -14 13 -56 14 -106z m-1729 90 c13 -16 12 -17 -3 -4 -10 7
-18 15 -18 17 0 8 8 3 21 -13z m49 -23 c0 -5 -4 -10 -9 -10 -6 0 -13 5 -16 10
-3 6 1 10 9 10 9 0 16 -4 16 -10z m-2477 -40 c58 -13 69 -27 42 -50 -12 -10
-20 -9 -40 4 -13 9 -31 16 -40 16 -8 0 -15 5 -15 11 0 5 5 7 12 3 7 -4 8 -3 4
4 -4 7 -13 12 -21 12 -8 0 -17 5 -21 12 -5 7 -2 9 7 6 8 -3 40 -11 72 -18z
m193 -65 c133 -52 262 -125 349 -200 33 -28 71 -59 85 -68 15 -11 19 -17 10
-17 -8 0 -21 -4 -29 -9 -12 -8 -12 -14 4 -38 l18 -28 -29 26 c-16 14 -65 46
-109 69 -44 24 -98 55 -120 69 -22 14 -57 35 -77 45 -21 11 -38 26 -38 35 -1
13 -4 12 -16 -4 -16 -19 -16 -19 -9 5 7 23 6 24 -9 11 -11 -9 -20 -11 -24 -5
-4 6 -27 22 -52 36 -74 43 -93 64 -86 93 4 14 8 25 11 25 2 0 57 -20 121 -45z
m-76 -105 c66 -54 89 -81 51 -61 -12 7 -61 51 -109 99 -49 48 -70 71 -48 51
23 -20 70 -60 106 -89z m500 95 c34 -15 34 -16 5 -10 -76 14 -153 17 -173 6
-12 -6 -22 -9 -22 -6 0 3 15 13 33 21 38 17 106 13 157 -11z m135 -43 c50 -31
136 -113 180 -172 18 -25 47 -78 63 -118 27 -62 29 -71 12 -62 -10 5 -21 23
-25 40 -4 16 -10 30 -14 30 -5 0 -16 19 -25 43 -21 55 -155 194 -220 227 -53
27 -77 58 -35 45 13 -5 42 -19 64 -33z m3130 18 c-3 -5 -2 -10 4 -10 6 0 3
-19 -7 -45 -9 -25 -19 -45 -23 -45 -4 0 -12 14 -18 32 -10 27 -8 34 11 55 21
23 45 32 33 13z m-944 -30 c13 -10 20 -19 16 -20 -11 0 -67 29 -67 35 0 12 30
3 51 -15z m-2236 -24 c15 -19 32 -33 40 -30 16 6 77 -65 73 -86 -4 -18 -6 -18
-83 -1 -67 15 -167 60 -159 73 3 4 -6 12 -20 18 -48 18 -33 30 69 53 43 10 55
6 80 -27z m2228 -85 c12 -23 34 -54 50 -67 37 -31 25 -31 -28 1 -45 26 -99 99
-111 150 l-7 30 37 -35 c20 -19 47 -55 59 -79z m-94 68 c6 -18 11 -43 11 -55
0 -13 5 -24 11 -24 5 0 7 -5 4 -10 -4 -6 -1 -9 5 -8 21 5 45 -64 54 -152 2
-25 9 -58 16 -74 16 -44 4 -44 -40 -1 -25 24 -40 49 -41 65 -1 14 -7 -4 -15
-39 -8 -35 -12 -66 -10 -68 2 -3 7 9 11 26 8 37 25 41 25 6 0 -14 7 -37 16
-50 10 -15 12 -25 5 -25 -5 0 -8 -7 -5 -15 4 -8 -1 -26 -9 -39 -9 -13 -18 -39
-22 -58 -6 -31 -10 -34 -32 -30 -27 5 -27 7 -7 112 2 14 -7 -6 -21 -44 -13
-38 -28 -72 -31 -75 -10 -9 5 84 33 199 27 111 36 279 19 353 -10 46 7 51 23
6z m990 -19 c13 -44 2 -76 -42 -124 -29 -31 -38 -25 -26 17 8 29 7 54 -7 112
-4 16 -3 17 5 5 9 -13 13 -12 26 8 22 31 30 28 44 -18z m85 -28 c-7 -37 -24
-43 -24 -9 0 21 19 51 27 43 2 -1 0 -17 -3 -34z m-190 2 c9 -8 16 -26 16 -38
0 -45 -32 -129 -58 -153 -38 -35 -145 -95 -225 -127 -77 -31 -232 -67 -271
-64 -32 3 -34 23 -3 39 12 7 54 37 92 68 165 133 396 290 427 291 4 0 14 -7
22 -16z m166 -67 c0 -5 -4 -6 -9 -3 -12 8 -21 -18 -14 -43 7 -28 -15 -55 -32
-41 -28 23 -27 60 2 100 27 38 28 38 40 17 7 -12 12 -26 13 -30z m-3616 5 c22
-15 111 -67 196 -115 85 -49 166 -97 180 -109 25 -20 -15 1 -195 102 -169 95
-235 135 -235 143 0 12 10 8 54 -21z m3819 -23 c-6 -6 -7 3 -4 23 4 28 6 29 9
9 2 -13 0 -27 -5 -32z m-3229 -10 c14 -17 26 -39 26 -50 0 -11 5 -29 10 -39 8
-16 8 -18 -5 -14 -8 4 -15 15 -15 25 0 10 -3 19 -7 19 -5 0 -20 10 -35 23 -19
17 -25 30 -21 45 7 29 16 28 47 -9z m2951 -65 c6 -34 3 -45 -20 -72 -15 -18
-32 -29 -38 -25 -7 3 -9 3 -5 -2 4 -4 3 -14 -3 -22 -8 -9 -8 -13 -1 -13 6 0
14 5 17 10 9 14 25 12 25 -3 0 -32 -102 -189 -114 -176 -3 3 2 25 11 49 8 25
18 78 21 118 4 58 8 72 19 68 8 -4 11 -1 7 5 -8 14 16 90 27 83 5 -3 14 4 21
15 16 26 25 16 33 -35z m-3071 -8 c60 -18 116 -56 116 -78 0 -24 -6 -23 -51
13 -22 17 -70 42 -107 55 -54 18 -61 23 -36 23 17 1 52 -5 78 -13z m3147 -19
c-10 -9 -11 -8 -5 6 3 10 9 15 12 12 3 -3 0 -11 -7 -18z m304 -7 c17 -19 18
-27 7 -77 -6 -31 -17 -62 -23 -67 -8 -8 -9 -3 -5 19 11 54 10 119 -2 123 -14
4 -16 22 -4 22 5 0 17 -9 27 -20z m-335 -15 c0 -8 -4 -15 -8 -15 -12 0 -32
-46 -32 -71 0 -11 -4 -17 -10 -14 -17 10 -11 47 13 82 24 35 37 42 37 18z
m-2858 -65 c61 -23 81 -44 113 -120 10 -25 43 -99 74 -165 l56 -120 -1 -107
c-2 -103 -18 -227 -34 -257 -9 -17 -3 56 11 138 17 100 11 191 -16 261 -14 35
-31 70 -39 79 -15 17 -76 168 -76 188 0 12 -43 63 -53 63 -3 0 1 -20 10 -46 8
-25 14 -47 12 -49 -2 -2 -21 -6 -41 -10 -26 -5 -38 -4 -38 4 0 6 -12 11 -26
11 -14 0 -48 11 -75 25 -27 13 -49 22 -49 19 0 -10 124 -84 140 -84 13 0 19
-10 22 -35 3 -30 2 -33 -12 -21 -8 8 -30 17 -48 21 -77 16 -144 71 -186 153
-18 35 -14 39 24 17 41 -23 95 -19 118 9 13 18 22 22 30 14 14 -14 92 -28 92
-17 0 5 -13 9 -30 9 -19 0 -42 11 -65 31 -44 39 -46 57 -2 31 17 -11 58 -30
89 -42z m2678 -78 c-10 -46 -21 -63 -73 -115 -34 -33 -55 -57 -47 -53 8 4 6 0
-4 -8 -11 -9 -28 -14 -37 -11 -10 3 -20 1 -24 -4 -4 -7 1 -8 12 -5 10 3 -6 -8
-35 -26 -30 -17 -64 -33 -75 -36 -12 -2 -58 -12 -102 -23 -161 -39 -287 -51
-334 -32 -25 11 -30 18 -25 35 3 11 13 27 23 34 9 7 15 18 13 24 -2 7 3 6 12
-2 10 -7 16 -8 16 -2 0 6 -4 14 -10 17 -22 13 55 102 107 124 16 6 99 29 186
50 122 31 184 52 280 98 l122 59 3 -35 c2 -20 -2 -60 -8 -89z m-3165 58 c4 -6
-5 -10 -20 -10 -32 0 -93 -31 -122 -62 -12 -12 -27 -43 -33 -68 -10 -40 -8
-54 13 -117 14 -40 23 -73 20 -73 -2 0 -16 26 -31 58 -58 128 -22 222 104 267
47 17 61 18 69 5z m2255 -50 c0 -6 -23 -34 -51 -63 -80 -83 -89 -108 -85 -224
4 -94 3 -97 -11 -63 -21 50 -27 128 -13 180 9 35 28 60 82 112 72 70 78 75 78
58z m1460 -83 c0 -11 -8 -35 -17 -55 l-18 -37 -6 55 c-3 30 -4 68 -1 83 l5 28
18 -28 c11 -15 19 -36 19 -46z m-3830 8 c-7 -9 -15 -13 -18 -10 -3 2 1 11 8
20 7 9 15 13 18 10 3 -2 -1 -11 -8 -20z m110 5 c0 -13 -9 -22 -25 -26 -14 -3
-25 -10 -25 -15 0 -13 -37 -11 -46 2 -9 15 15 36 56 47 19 6 36 11 38 11 1 1
2 -8 2 -19z m720 -44 c39 -25 77 -51 83 -58 10 -12 177 -113 350 -212 26 -15
47 -29 47 -31 0 -13 -21 -55 -28 -55 -4 0 -53 29 -107 65 -54 36 -161 100
-237 141 -76 42 -138 78 -138 79 0 1 -11 28 -25 59 -14 31 -23 56 -21 56 2 0
36 -20 76 -44z m-698 -11 c7 -9 19 -23 27 -31 7 -8 11 -17 8 -20 -3 -3 10 -19
29 -36 19 -17 34 -33 34 -37 0 -4 -21 -12 -47 -18 -37 -9 -49 -8 -60 3 -8 8
-21 14 -30 14 -23 0 -10 22 27 48 18 12 27 22 20 22 -7 0 -28 -11 -45 -25
l-33 -24 -6 41 c-5 31 -3 45 10 59 21 23 49 24 66 4z m929 -57 c188 -108 272
-162 277 -177 4 -11 -1 -10 -19 2 -13 10 -28 17 -34 17 -14 -1 37 -40 53 -40
12 0 18 -20 5 -20 -3 0 -20 11 -37 24 -17 12 -107 67 -201 121 -170 97 -198
115 -179 115 6 0 14 -4 20 -9 16 -16 327 -191 331 -187 6 5 -207 131 -299 177
-64 33 -83 49 -55 49 7 0 69 -32 138 -72z m2315 47 c5 -13 8 -13 27 0 37 26
43 16 10 -16 -18 -16 -33 -40 -33 -52 0 -27 -35 -87 -52 -88 -25 -2 -34 -4
-71 -18 -21 -7 -47 -11 -58 -8 -11 3 -35 -3 -52 -12 -93 -52 -187 -100 -182
-91 3 5 34 29 68 54 60 42 102 62 122 58 6 -1 1 5 -9 13 -26 20 -38 19 -67 -4
-13 -10 -53 -33 -89 -51 -79 -40 -63 -15 24 37 33 20 70 44 81 53 34 29 135
81 145 75 6 -3 10 -1 10 5 0 6 4 9 9 6 5 -3 12 1 15 10 3 9 13 14 20 11 8 -3
16 -2 18 4 6 17 48 -22 48 -45 0 -13 -11 -39 -24 -59 -14 -20 -19 -34 -12 -31
18 7 46 59 46 86 0 13 -7 33 -15 44 -14 21 -11 34 7 34 5 0 11 -7 14 -15z
m-2682 -31 c10 -25 -1 -29 -14 -5 -6 12 -7 21 -1 21 5 0 12 -7 15 -16z m3161
-24 c4 -16 1 -39 -6 -52 -12 -23 -13 -23 -21 11 -10 37 -3 85 12 76 4 -3 11
-18 15 -35z m-2999 -45 c10 -8 14 -15 8 -15 -5 0 -19 7 -30 15 -10 8 -14 15
-8 15 5 0 19 -7 30 -15z m-182 -260 c1 -123 -2 -159 -12 -157 -6 1 -11 -1 -11
-5 3 -20 -2 -34 -10 -28 -6 3 -14 -3 -20 -12 -6 -10 -11 -13 -11 -8 0 6 -5 3
-10 -5 -6 -9 -10 -11 -10 -3 0 7 -7 10 -15 7 -23 -9 -103 81 -116 130 -6 22
-9 65 -6 94 6 55 31 107 47 97 4 -3 10 1 13 7 3 8 16 0 37 -22 18 -19 28 -28
23 -20 -16 24 -24 52 -14 45 5 -3 13 4 16 15 5 16 10 18 19 10 10 -8 12 -5 9
12 -2 13 3 41 13 63 l16 40 20 -50 c17 -42 20 -76 22 -210z m-754 240 c0 -3
-18 -21 -40 -41 -47 -42 -65 -93 -50 -144 15 -52 59 -108 112 -142 55 -36 62
-46 16 -22 -41 20 -115 90 -134 126 -33 63 -12 165 44 208 23 19 52 27 52 15z
m3980 -17 c0 -13 -10 -36 -21 -53 -12 -16 -18 -21 -13 -10 4 11 8 32 9 48 3
36 3 37 15 37 6 0 10 -10 10 -22z m-3182 -13 c-3 -3 -9 2 -12 12 -6 14 -5 15
5 6 7 -7 10 -15 7 -18z m2262 -3 c-13 -9 -73 -52 -133 -95 -106 -75 -109 -77
-135 -62 -15 8 -71 18 -127 22 -90 7 -100 10 -102 28 -2 11 5 30 15 42 17 22
18 22 63 6 44 -16 50 -16 186 10 77 15 164 36 194 46 67 24 70 24 39 3z m-803
-48 c-1 -31 -4 -47 -8 -37 -5 15 -9 12 -24 -16 -13 -26 -16 -48 -12 -90 6 -54
5 -55 -8 -26 -17 36 -19 94 -4 132 8 24 50 93 56 93 1 0 1 -25 0 -56z m1675
21 c-6 -35 -22 -42 -17 -8 5 35 4 33 14 33 4 0 6 -11 3 -25z m-1572 9 c0 -3
-7 -12 -15 -20 -13 -14 -15 -13 -15 5 0 12 6 21 15 21 8 0 15 -3 15 -6z
m-1357 -43 c23 -15 62 -39 87 -52 99 -54 211 -122 207 -126 -5 -5 -287 157
-327 187 -39 30 -13 23 33 -9z m218 -54 c13 -10 -7 -2 -46 18 -38 20 -77 44
-85 52 -17 17 92 -41 131 -70z m2670 36 c-9 -16 -10 -16 -11 -1 0 9 3 25 7 35
7 16 8 17 11 1 2 -10 -1 -25 -7 -35z m-3550 -18 c23 -31 40 -58 37 -60 -7 -7
-98 91 -98 105 0 23 22 7 61 -45z m-388 30 c-3 -9 -8 -14 -10 -11 -3 3 -2 9 2
15 9 16 15 13 8 -4z m37 -14 c0 -12 -20 -25 -27 -18 -7 7 6 27 18 27 5 0 9 -4
9 -9z m3998 -3 c19 -19 14 -30 -8 -18 -11 6 -20 15 -20 20 0 14 14 12 28 -2z
m-3920 -73 c-21 -22 -22 -22 -41 -4 -10 9 -16 22 -12 28 3 6 -1 11 -9 11 -25
0 -18 15 12 26 23 9 30 7 50 -14 l23 -24 -23 -23z m3402 55 c11 -7 5 -10 -25
-11 -30 -2 -33 -3 -12 -6 15 -2 27 -8 27 -13 0 -12 -26 -19 -49 -13 -17 4 -20
2 -15 -11 4 -11 1 -16 -10 -16 -9 0 -16 5 -16 11 0 6 -12 2 -27 -9 -60 -41
-65 -39 -24 13 8 11 -4 2 -27 -20 -23 -21 -42 -36 -42 -31 0 61 166 141 220
106z m370 1 c0 -5 -9 -19 -20 -32 l-20 -24 11 33 c10 29 29 45 29 23z m140
-18 c14 -9 30 -22 35 -28 6 -6 23 -25 39 -43 29 -31 29 -32 7 -32 -22 0 -49
23 -98 83 -35 41 -27 50 17 20z m1690 10 c-1 -19 -19 -34 -41 -35 -14 -1 -54
-28 -96 -66 -79 -69 -91 -72 -43 -11 46 57 180 141 180 112z m-4370 -53 c8 -5
10 -10 4 -10 -7 0 -22 9 -35 21 -19 16 -20 18 -4 10 11 -6 27 -15 35 -21z
m140 9 c25 -19 27 -25 18 -45 -6 -13 -15 -24 -20 -24 -5 0 -4 9 2 21 7 11 9
23 6 26 -3 3 -10 -7 -16 -22 -10 -26 -12 -27 -26 -13 -12 11 -14 25 -9 47 4
17 9 31 11 31 3 0 18 -10 34 -21z m2344 -3 c-3 -9 -10 -13 -15 -10 -5 3 -9 -2
-9 -11 0 -9 -7 -23 -15 -31 -27 -28 -18 11 11 46 27 32 39 35 28 6z m-3660
-11 c23 -18 16 -27 -19 -27 -33 0 -41 8 -25 27 15 18 20 18 44 0z m3451 -35
c9 -32 3 -25 -19 20 -12 25 -13 31 -3 20 8 -8 18 -26 22 -40z m2335 40 c0 -5
-12 -9 -27 -8 -53 1 -158 -11 -185 -21 -17 -6 -28 -7 -28 -1 0 17 93 39 168
39 40 1 72 -3 72 -9z m-3530 -46 c-17 -20 -36 -48 -42 -63 -11 -25 -13 -228
-4 -298 3 -18 1 -33 -3 -33 -10 0 -31 162 -31 236 0 71 25 129 69 167 45 37
49 34 11 -9z m731 21 c0 6 4 1 9 -10 9 -19 9 -19 16 2 3 13 10 20 15 17 15 -9
10 -31 -8 -39 -33 -13 -73 -16 -73 -6 0 6 6 8 14 5 8 -3 17 -1 21 5 3 6 1 11
-4 11 -6 0 -11 8 -11 18 0 14 2 15 10 2 5 -8 10 -10 11 -5z m439 -25 c0 -13
-1 -13 -10 0 -5 8 -10 22 -10 30 0 13 1 13 10 0 5 -8 10 -22 10 -30z m-2056 4
c10 -26 7 -41 -15 -65 -19 -23 -20 -23 -10 -2 14 27 14 46 1 38 -5 -3 -10 2
-10 13 0 33 23 44 34 16z m1165 -1 c14 -9 21 -11 17 -5 -4 6 1 11 11 10 10 0
28 2 40 5 28 7 57 -24 48 -52 -3 -12 -11 -19 -16 -16 -5 4 -9 -5 -9 -19 0 -14
-5 -26 -12 -26 -16 0 -58 -41 -58 -57 0 -7 -11 -18 -24 -24 -22 -10 -40 -41
-37 -62 1 -4 -10 -13 -24 -19 -14 -6 -25 -16 -24 -22 6 -54 -16 -60 -55 -14
-29 36 -34 63 -11 72 10 4 15 20 15 53 0 48 9 74 26 76 27 3 28 22 2 48 -29
29 -37 59 -15 59 7 0 18 -5 25 -12 9 -9 12 -9 12 0 0 7 4 12 10 12 5 0 7 -7 4
-15 -9 -22 9 -18 26 5 17 24 19 24 49 3z m-491 -28 c1 -31 -1 -34 -13 -22 -8
8 -11 24 -8 36 8 32 20 25 21 -14z m1332 11 c0 -7 -18 -22 -40 -35 -41 -23
-47 -19 -31 23 13 34 71 44 71 12z m204 2 c-6 -22 -25 -41 -31 -34 -2 2 1 15
6 30 13 32 35 36 25 4z m-1574 5 c-1 -26 -54 -53 -105 -53 -24 0 -38 -6 -45
-20 -10 -18 -8 -19 21 -13 42 8 31 -10 -21 -37 -50 -25 -68 -26 -48 -2 30 35
34 48 8 29 -37 -26 -86 -47 -112 -47 -19 0 -15 5 22 31 68 46 98 60 185 90 88
31 95 32 95 22z m1278 -5 c14 -14 -12 -48 -37 -48 -13 0 -13 -2 -3 -9 10 -6 9
-10 -7 -14 -16 -4 -21 0 -21 13 0 15 31 34 53 31 4 -1 7 4 7 9 0 6 -4 10 -10
10 -5 0 -10 5 -10 10 0 14 13 13 28 -2z m597 -6 c-3 -3 -11 0 -18 7 -9 10 -8
11 6 5 10 -3 15 -9 12 -12z m1715 2 c-19 -8 -42 -22 -52 -30 -9 -9 -21 -13
-26 -10 -5 3 -15 -1 -22 -9 -7 -8 -21 -15 -30 -15 -25 0 -130 -119 -130 -147
0 -12 -5 -25 -10 -28 -6 -4 -8 -10 -5 -15 7 -11 -5 -41 -15 -35 -4 3 -8 -5 -9
-18 -2 -45 -8 -84 -14 -94 -9 -14 -10 -72 -1 -117 5 -29 4 -37 -5 -32 -6 4 -3
-7 9 -26 26 -43 27 -66 3 -47 -16 13 -17 12 -4 -3 7 -10 11 -27 8 -37 -3 -12
4 -28 19 -42 25 -23 32 -49 14 -49 -5 0 -10 -9 -10 -19 0 -31 -18 -34 -36 -6
-13 19 -14 31 -6 54 9 26 8 29 -6 24 -9 -3 -14 -3 -10 1 3 4 2 21 -3 38 -5 19
-5 36 1 43 11 13 1 29 -22 38 -11 4 -18 17 -18 31 0 14 -4 28 -10 31 -15 9
-12 38 3 32 6 -2 11 -10 9 -16 -3 -16 15 -14 21 3 3 8 -5 18 -19 25 -26 11
-32 36 -11 45 10 5 10 7 0 12 -18 8 -16 34 5 57 16 19 16 20 -1 14 -21 -8 -35
19 -18 36 8 8 11 8 11 -3 0 -30 14 4 16 37 0 22 7 39 17 45 10 5 17 15 17 22
0 8 7 16 15 20 8 3 15 12 15 20 0 8 10 32 23 53 20 34 22 36 25 15 5 -31 22
-17 22 19 0 22 5 29 19 29 11 0 23 5 26 10 10 16 28 12 22 -5 -10 -25 9 -26
23 -1 7 14 22 27 34 31 112 36 181 47 116 19z m210 -5 c44 -26 80 -59 80 -73
0 -5 -12 2 -27 16 -16 14 -46 37 -68 52 -47 31 -35 35 15 5z m-5647 -78 c7 -8
-12 1 -42 20 -30 19 -57 41 -59 48 -5 15 80 -43 101 -68z m5127 63 c0 -8 -13
-32 -29 -52 -16 -20 -35 -57 -42 -82 -16 -58 -27 -71 -22 -26 4 45 17 79 49
134 25 43 44 54 44 26z m-4058 -16 c-7 -7 -12 -8 -12 -2 0 14 12 26 19 19 2
-3 -1 -11 -7 -17z m2278 -32 c-12 -26 -27 -46 -33 -46 -8 0 -7 4 1 12 7 7 12
19 12 28 0 18 30 64 37 56 3 -3 -5 -25 -17 -50z m555 25 c103 -40 159 -78 235
-159 58 -61 137 -181 114 -171 -28 12 -84 56 -84 66 0 21 -114 124 -142 130
-43 8 -20 26 25 20 27 -4 36 -2 26 4 -7 5 -24 9 -35 9 -12 0 -62 20 -112 45
-49 25 -101 45 -114 45 -13 0 -34 7 -46 16 -12 8 -27 12 -34 8 -7 -4 -8 -3 -4
4 13 21 93 13 171 -17z m-2805 -1 c0 -5 -5 -10 -11 -10 -5 0 -7 5 -4 10 3 6 8
10 11 10 2 0 4 -4 4 -10z m778 -34 c2 -18 0 -26 -7 -21 -6 3 -11 1 -11 -5 0
-6 -4 -9 -8 -6 -13 8 -1 67 12 63 6 -2 12 -16 14 -31z m1142 12 c0 -19 -2 -20
-10 -8 -6 10 -10 11 -10 3 0 -7 -4 -13 -10 -13 -14 0 -12 27 3 33 23 10 27 7
27 -15z m-1860 2 c0 -5 -9 -10 -20 -10 -11 0 -20 5 -20 10 0 6 9 10 20 10 11
0 20 -4 20 -10z m2150 -15 c-5 -14 -19 -35 -30 -47 -31 -34 -26 3 6 41 31 38
36 39 24 6z m-1119 -54 c8 -28 8 -43 0 -59 -7 -14 -8 -23 -1 -27 7 -4 7 -13 0
-26 -15 -28 -28 -23 -22 7 3 19 1 25 -6 20 -8 -5 -10 -2 -6 8 3 9 2 16 -2 16
-5 0 -9 27 -10 59 -1 55 1 59 17 50 10 -5 23 -27 30 -48z m1707 39 c23 -11 42
-22 42 -24 0 -2 -11 -6 -24 -8 -16 -3 -34 4 -56 24 -39 33 -22 37 38 8z
m-2115 -58 c-5 -10 -23 -18 -38 -20 -26 -3 -27 -2 -20 25 3 15 7 28 8 29 35
22 42 22 51 3 6 -14 6 -27 -1 -37z m1870 43 c42 -7 51 -25 12 -25 -25 0 -95
25 -95 33 0 4 13 3 83 -8z m-3458 -82 c14 -28 35 -59 47 -69 18 -17 18 -14 -5
21 -28 45 -43 85 -30 85 4 0 21 -20 36 -45 16 -24 44 -61 62 -82 31 -34 33
-39 18 -50 -9 -7 -27 -13 -40 -13 -13 0 -23 -5 -23 -11 0 -18 -95 -4 -142 21
-22 11 -55 37 -74 57 -31 33 -33 38 -21 57 8 12 26 22 41 24 27 3 35 17 14 25
-8 4 -4 8 10 12 12 4 22 15 22 26 0 16 3 17 30 5 20 -8 38 -29 55 -63z m1690
67 c3 -5 1 -10 -4 -10 -6 0 -11 5 -11 10 0 6 2 10 4 10 3 0 8 -4 11 -10z
m1355 -9 c-5 -11 -14 -23 -20 -26 -5 -3 -7 -12 -4 -19 3 -8 0 -17 -5 -21 -6
-3 -9 -11 -6 -16 3 -5 -1 -6 -9 -3 -9 3 -13 11 -9 17 4 7 8 20 8 29 2 19 33
58 47 58 5 0 4 -9 -2 -19z m230 12 c0 -12 -33 -43 -47 -43 -16 0 -16 5 -3 31
10 17 50 28 50 12z m373 -56 c-5 -9 -32 -3 -85 20 -39 16 -47 28 -26 35 16 6
116 -45 111 -55z m-1975 23 c8 -16 12 -40 10 -52 -3 -20 -6 -18 -21 16 -9 21
-17 45 -17 52 0 24 14 15 28 -16z m-2035 -5 c3 -7 41 -56 84 -110 64 -80 90
-103 148 -136 77 -43 70 -53 -11 -15 -72 33 -122 82 -193 186 -34 48 -61 91
-61 94 0 10 28 -6 33 -19z m3750 19 c12 -4 13 -12 3 -44 -15 -53 -28 -65 -54
-51 -28 15 -36 41 -16 56 10 6 14 17 10 23 -3 6 3 12 16 15 13 2 24 5 25 6 1
0 8 -2 16 -5z m-2023 -26 c-19 -13 -32 -26 -29 -29 7 -10 -24 -40 -37 -35 -7
3 -18 -3 -26 -12 -12 -16 -11 -16 7 -2 18 14 19 14 7 -1 -7 -9 -23 -19 -35
-22 -12 -2 -31 -8 -42 -13 -29 -12 82 109 114 123 14 7 37 12 50 13 22 0 22
-1 -9 -22z m100 -2 c0 -20 -51 -55 -92 -63 l-33 -6 20 23 c23 27 74 60 93 60
6 0 12 -6 12 -14z m2063 -13 c29 -36 19 -66 -26 -76 -48 -12 -107 -1 -107 19
0 8 7 31 15 50 14 34 17 35 57 33 30 -2 48 -10 61 -26z m-245 -8 c7 -14 12
-30 12 -34 0 -13 -57 -34 -69 -26 -18 11 -12 46 12 66 29 24 32 24 45 -6z
m-308 5 c0 -12 -42 -51 -48 -45 -7 7 27 55 38 55 6 0 10 -4 10 -10z m220 -24
c0 -44 -27 -57 -53 -25 -20 25 -12 39 22 42 11 1 21 5 21 9 0 4 2 8 5 8 3 0 5
-15 5 -34z m410 2 c0 -11 -7 -10 -31 2 -28 16 -23 32 6 18 14 -6 25 -15 25
-20z m219 -23 c-3 -2 -16 10 -29 28 l-23 32 29 -27 c15 -15 26 -30 23 -33z
m-2459 41 c0 -2 -7 -7 -16 -10 -8 -3 -12 -2 -9 4 6 10 25 14 25 6z m189 -30
c-18 -33 -51 -56 -86 -56 -41 0 -46 10 -23 47 19 32 43 41 92 34 25 -3 26 -6
17 -25z m101 8 c0 -8 -4 -12 -10 -9 -5 3 -10 13 -10 21 0 8 5 12 10 9 6 -3 10
-13 10 -21z m155 -109 c4 -38 11 -85 17 -102 8 -28 4 -43 -26 -110 -34 -75
-35 -77 -45 -50 -11 29 -27 124 -34 200 l-5 48 34 -26 c52 -40 62 -29 16 18
-51 52 -53 79 -10 125 l33 33 7 -33 c4 -18 10 -64 13 -103z m433 115 c-7 -10
-14 -17 -17 -15 -4 4 18 35 25 35 2 0 -1 -9 -8 -20z m677 11 c-76 -70 -148
-118 -219 -144 -103 -38 -206 -66 -276 -74 l-54 -6 59 66 c70 78 91 88 246
116 63 11 137 27 164 35 60 16 93 19 80 7z m1895 -82 c-13 -62 -30 -88 -30
-46 0 34 32 135 38 119 2 -8 -1 -41 -8 -73z m-1094 45 c18 -8 34 -20 37 -27 3
-8 20 -21 39 -31 l33 -17 -55 7 c-62 7 -110 26 -135 54 -36 40 8 47 81 14z
m144 16 c0 -5 -4 -10 -10 -10 -5 0 -10 5 -10 10 0 6 5 10 10 10 6 0 10 -4 10
-10z m-721 -72 c-7 -14 -6 -16 5 -12 19 7 29 -27 24 -80 l-3 -38 -28 22 c-21
17 -28 29 -24 47 2 13 2 21 -1 19 -2 -3 -14 -1 -26 5 -19 9 -19 9 -3 -4 9 -8
17 -22 17 -31 0 -10 16 -34 36 -54 44 -46 124 -187 124 -219 0 -31 -30 -28
-46 4 -6 13 -28 34 -50 48 l-39 26 43 -43 c23 -24 53 -54 67 -68 31 -32 31
-41 2 -68 l-24 -22 -18 20 c-16 17 -17 25 -7 40 18 29 15 38 -4 12 -8 -12 -22
-22 -30 -22 -8 0 -14 -7 -14 -16 0 -10 6 -14 15 -10 8 3 21 -4 29 -16 14 -19
13 -24 -5 -50 -11 -15 -27 -28 -34 -28 -8 0 -31 28 -51 63 -20 35 -48 72 -64
82 -25 17 -26 20 -14 44 29 54 4 175 -51 246 -28 38 -30 45 -12 45 6 1 43 30
82 65 l70 64 21 -27 c16 -20 20 -32 13 -44z m-2694 25 c15 -82 85 -193 194
-308 102 -107 118 -126 125 -152 5 -14 -18 4 -60 47 -37 39 -70 68 -72 65 -3
-3 -10 5 -16 16 -6 12 -15 21 -20 20 -5 -1 -14 8 -21 21 -6 13 -16 22 -22 21
-6 -1 -17 5 -25 14 -9 12 -9 15 0 9 6 -4 12 -5 12 -2 0 9 -43 90 -62 116 -10
14 -24 48 -32 75 -8 28 -17 60 -21 73 -4 13 -3 22 3 22 5 0 13 -17 17 -37z
m2446 3 c-6 -14 -15 -26 -20 -26 -5 0 -14 -14 -21 -30 -7 -17 -15 -28 -18 -26
-8 8 19 69 41 93 25 28 31 24 18 -11z m719 6 c28 -28 50 -85 50 -129 0 -30
-30 -30 -105 -2 -55 20 -80 45 -87 83 -2 16 5 22 35 29 21 5 44 18 50 28 16
25 23 24 57 -9z m-1930 -2 c4 -8 4 -23 1 -34 -7 -17 -8 -17 -22 5 -30 47 -30
48 -8 46 11 -1 24 -8 29 -17z m1264 6 c-6 -15 -34 -31 -34 -19 0 5 30 32 37
33 1 0 0 -6 -3 -14z m956 4 c8 -5 12 -11 10 -14 -3 -2 -14 2 -24 10 -22 15
-10 19 14 4z m-2290 -46 c0 -38 -6 -53 -36 -87 -39 -46 -104 -173 -104 -203 0
-11 7 -30 16 -43 16 -22 16 -22 -5 -9 -19 11 -23 11 -31 -2 -5 -8 -16 -24 -24
-35 -15 -20 -15 -20 -16 1 0 18 17 71 69 214 9 25 32 71 51 103 19 32 41 69
48 83 20 37 32 29 32 -22z m1752 23 c1 -17 -14 -97 -18 -97 -20 0 -67 35 -74
56 -14 35 -13 40 12 51 23 10 79 4 80 -10z m-1959 7 c9 -9 -13 -52 -30 -58
-23 -9 -36 4 -21 22 11 13 10 15 -4 9 -21 -7 -24 3 -6 21 13 13 50 16 61 6z
m1817 -14 c10 -5 24 -26 30 -45 10 -30 9 -40 -5 -61 -23 -36 -40 -25 -42 27
-3 79 -2 76 -13 59 -8 -12 -10 -11 -10 8 0 24 11 27 40 12z m195 0 c28 -10 55
-62 55 -103 0 -14 -9 -36 -21 -51 l-20 -26 -41 21 c-33 17 -39 24 -33 42 4 12
12 46 18 75 6 28 12 52 13 52 1 0 14 -4 29 -10z m-2200 -57 c-75 -95 -99 -122
-103 -119 -4 5 56 127 69 141 8 8 49 26 77 34 1 1 -18 -25 -43 -56z m49 10
c-16 -21 -29 -41 -29 -45 0 -3 -3 -9 -7 -13 -3 -4 -5 5 -4 20 3 25 55 90 64
80 3 -2 -8 -21 -24 -42z m286 38 c0 -6 -11 -23 -24 -38 l-25 -28 5 25 c3 14 7
31 10 38 4 14 34 17 34 3z m100 -14 c0 -7 9 -18 19 -24 13 -8 18 -19 14 -33
-5 -19 -6 -19 -29 7 -24 29 -32 63 -14 63 6 0 10 -6 10 -13z m1168 -11 c-10
-24 -36 -41 -45 -32 -5 5 42 56 51 56 3 0 1 -11 -6 -24z m880 4 c22 -11 46
-20 52 -20 5 0 10 -6 10 -12 0 -7 11 -34 24 -60 24 -48 24 -48 3 -48 -35 0
-107 40 -107 60 0 9 -7 36 -15 59 -8 22 -13 41 -11 41 1 0 21 -9 44 -20z
m-2208 -14 c0 -13 -7 -30 -16 -37 -15 -12 -16 -11 -9 10 7 22 5 24 -23 18 -16
-3 -32 -3 -36 0 -13 13 18 33 50 33 29 0 34 -3 34 -24z m-1152 -18 c5 -7 24
-40 41 -73 18 -33 43 -70 55 -82 13 -12 31 -41 40 -65 10 -25 30 -52 47 -63
16 -11 32 -28 34 -37 8 -22 81 -88 100 -88 15 0 80 -82 110 -140 19 -37 24
-122 6 -128 -5 -2 -1 -12 10 -23 41 -41 8 -109 -54 -109 -27 0 -37 -5 -42 -21
-6 -16 -14 -20 -43 -18 -49 3 -92 25 -92 47 0 9 -6 29 -14 44 -13 24 -12 28 5
44 10 9 19 24 18 33 0 11 -3 9 -9 -5 -13 -34 -27 -37 -75 -17 -39 16 -47 24
-59 63 l-14 45 6 -49 c6 -56 -9 -57 -32 -3 -7 18 -24 42 -36 55 -29 31 -21 37
24 18 20 -8 36 -12 36 -7 0 4 -16 13 -35 20 -28 10 -35 18 -36 39 -1 25 -2 23
-15 -17 -4 -12 -50 39 -80 90 -6 11 -14 16 -17 12 -11 -10 -8 16 4 38 10 20
10 20 43 -1 18 -11 40 -20 47 -19 11 0 11 2 -1 6 -8 3 -27 15 -42 25 -23 16
-28 27 -28 60 0 51 -10 45 -12 -6 -2 -47 -14 -55 -22 -14 -6 29 -69 134 -90
149 -5 4 0 9 10 11 12 3 30 -8 50 -31 20 -23 40 -35 60 -37 28 -2 29 0 31 45
1 42 1 43 -7 13 -10 -42 -14 -46 -44 -38 -31 8 -50 41 -48 81 l3 30 -16 -22
c-18 -25 -40 -31 -32 -9 3 8 1 16 -5 18 -6 2 13 19 41 38 29 18 73 50 99 72
50 41 64 45 80 26z m3521 -14 c1 -10 8 -26 15 -35 6 -8 -1 -2 -16 13 -29 30
-37 53 -15 46 6 -3 14 -13 16 -24z m-2479 3 c0 -8 -11 -19 -25 -25 -31 -14
-33 1 -3 22 27 19 28 19 28 3z m1380 7 c0 -21 -35 -74 -49 -74 -12 0 -10 5 9
20 18 15 20 18 6 13 -20 -7 -18 3 7 35 10 12 27 17 27 6z m-85 -36 c-85 -71
-399 -288 -416 -288 -16 0 1 100 24 143 29 51 64 71 182 100 55 14 129 36 165
50 87 33 91 33 45 -5z m2093 12 c3 -7 0 -10 -6 -6 -15 9 -22 -34 -12 -84 8
-45 6 -59 -7 -46 -9 9 -17 122 -9 142 7 18 27 15 34 -6z m-4528 6 c0 -13 -70
-45 -85 -40 -16 7 -16 8 1 18 11 5 30 12 44 14 13 2 27 5 29 8 6 5 11 5 11 0z
m1440 -62 c0 -25 -17 -15 -34 20 -9 19 -16 38 -16 43 1 14 50 -47 50 -63z
m1289 -7 c68 -133 51 -206 -59 -248 -39 -16 -55 -26 -47 -32 7 -5 0 -6 -18 -3
-20 4 -25 3 -16 -2 9 -7 -6 -16 -53 -32 -37 -12 -65 -24 -63 -26 2 -3 49 11
103 31 55 20 119 40 143 46 39 9 46 7 68 -13 40 -37 53 -73 53 -141 0 -75 -26
-123 -113 -209 -49 -48 -195 -148 -216 -148 -5 0 -14 -7 -21 -15 -10 -13 -9
-15 9 -15 12 0 20 -4 17 -9 -9 -14 -67 -24 -131 -22 -42 1 -72 -5 -100 -19
-22 -10 -35 -20 -30 -20 21 -3 -31 -19 -61 -19 -36 -1 -54 17 -78 79 -10 25
-26 59 -36 75 -21 35 -38 205 -20 205 5 0 10 14 10 30 0 17 6 32 13 34 6 2 66
20 132 39 110 32 277 93 230 83 -11 -2 -82 -22 -158 -44 -76 -23 -158 -44
-183 -48 l-45 -6 3 33 c3 35 18 48 247 221 29 22 62 49 73 60 10 10 30 23 44
28 13 5 29 20 34 32 5 13 9 19 9 15 1 -4 10 -3 21 3 11 6 19 16 17 22 -1 7 7
14 18 16 11 2 49 24 85 48 36 23 70 42 75 40 6 -1 25 -32 44 -69z m367 13 c-4
-32 -13 -50 -26 -50 -14 0 -40 55 -40 84 l0 26 35 -17 c28 -13 34 -21 31 -43z
m655 43 c13 -16 12 -17 -3 -4 -10 7 -18 15 -18 17 0 8 8 3 21 -13z m-2372 -40
c0 -58 32 -187 65 -258 21 -46 22 -55 10 -76 -7 -13 -29 -74 -49 -135 -32
-103 -38 -113 -76 -140 -23 -15 -66 -55 -96 -89 -31 -33 -52 -55 -49 -48 4 7
1 33 -5 59 -9 35 -9 48 0 53 9 6 8 16 -3 42 -8 19 -17 33 -20 32 -24 -11 -29
1 -23 60 9 86 33 174 64 226 l26 44 63 -70 c35 -39 76 -78 91 -88 17 -12 2 10
-38 56 -86 97 -102 147 -70 229 22 57 84 150 101 150 5 0 9 -21 9 -47z m1950
-9 c9 -8 15 -34 15 -63 1 -50 -9 -75 -22 -54 -4 6 -26 17 -50 24 -58 17 -67
30 -48 68 9 16 16 42 16 56 l0 27 38 -23 c20 -12 43 -28 51 -35z m494 19 c19
-22 71 -143 63 -150 -8 -8 -56 29 -56 43 0 8 -13 42 -30 76 -16 34 -30 63 -30
65 0 8 36 -16 53 -34z m-1363 20 c0 -3 -7 -15 -17 -25 -10 -11 -12 -18 -4 -18
13 0 -2 -34 -26 -58 -11 -11 -13 -11 -13 1 0 8 7 17 15 21 8 3 15 10 15 16 0
6 -4 8 -10 5 -15 -10 -12 18 6 43 14 21 34 30 34 15z m-1002 -38 c-3 -3 -9 2
-12 12 -6 14 -5 15 5 6 7 -7 10 -15 7 -18z m1571 -26 c15 -51 8 -61 -13 -20
-9 17 -20 30 -24 30 -21 -4 -24 3 -6 16 27 21 30 19 43 -26z m444 7 c41 -28
66 -99 41 -123 -11 -12 -21 -12 -47 -4 -64 22 -94 47 -101 86 -4 20 -9 42 -12
49 -7 18 88 11 119 -8z m-2553 -11 c-13 -14 -18 -25 -12 -25 7 0 12 -4 12 -10
0 -5 -6 -10 -14 -10 -24 0 -159 -71 -195 -103 -19 -16 -50 -36 -69 -44 -26
-11 -32 -17 -22 -23 11 -7 8 -12 -13 -21 -14 -6 -24 -16 -21 -20 3 -5 -2 -9
-10 -9 -31 0 -27 23 10 62 49 51 169 132 229 156 25 10 54 25 64 34 19 16 53
37 60 38 3 0 -6 -11 -19 -25z m1468 3 c-6 -13 -13 -29 -14 -36 -4 -21 -35 -64
-42 -58 -3 4 4 19 16 35 15 21 18 31 9 34 -8 3 -6 10 7 26 25 28 40 27 24 -1z
m-930 -16 c9 9 12 7 12 -10 0 -12 -5 -22 -11 -22 -5 0 -7 -5 -3 -11 4 -8 0 -7
-15 1 -12 6 -26 22 -31 36 -15 37 -12 40 13 16 18 -17 26 -19 35 -10z m1499 6
c-3 -8 -6 -5 -6 6 -1 11 2 17 5 13 3 -3 4 -12 1 -19z m-1343 -40 c-15 -29 -38
-78 -50 -108 -13 -30 -23 -47 -24 -38 0 21 31 95 66 153 36 61 40 57 8 -7z
m1536 37 c23 -12 30 -22 30 -45 0 -35 -10 -37 -53 -12 -18 9 -33 18 -35 18 -4
2 20 54 25 54 2 0 17 -7 33 -15z m-1330 -19 c0 -43 12 -86 23 -79 6 4 8 -3 4
-20 -6 -21 -4 -24 12 -20 10 3 22 -1 27 -8 5 -9 2 -11 -9 -6 -21 8 -26 -10
-15 -53 12 -45 -4 -90 -31 -90 -11 0 -24 8 -29 18 -10 19 -15 236 -6 264 8 26
24 22 24 -6z m-2165 6 c11 -8 65 -88 65 -97 0 -16 -49 30 -69 65 -21 37 -19
49 4 32z m2011 -18 c-5 -14 -4 -15 9 -4 19 16 19 8 -2 -38 -9 -20 -17 -46 -19
-57 -12 -110 -18 -145 -26 -145 -19 0 -21 35 -5 81 21 58 21 63 1 55 -14 -5
-15 -4 -5 8 7 8 11 21 9 28 -2 8 6 31 17 51 20 38 32 50 21 21z m664 1 c0 -15
-40 -58 -48 -51 -2 2 4 18 13 35 16 33 35 41 35 16z m1293 -12 c3 -16 4 -29 2
-31 -4 -4 -85 47 -85 53 0 3 17 5 39 5 34 0 39 -3 44 -27z m1223 -224 c21 -46
57 -115 80 -154 55 -92 164 -292 164 -301 0 -4 -9 1 -20 11 -20 18 -90 139
-139 240 -13 28 -37 70 -52 95 -53 88 -109 254 -108 320 0 25 6 12 19 -46 10
-45 35 -119 56 -165z m-3786 221 c0 -5 -5 -10 -11 -10 -5 0 -7 5 -4 10 3 6 8
10 11 10 2 0 4 -4 4 -10z m400 -29 c1 8 7 3 15 -11 8 -14 14 -32 14 -40 0 -9
-2 -10 -5 -3 -3 7 -11 10 -18 7 -8 -3 -23 9 -35 29 -28 46 -27 56 4 27 18 -16
25 -19 25 -9z m786 -29 c-17 -17 -26 -22 -26 -12 0 19 44 64 48 50 3 -7 -7
-24 -22 -38z m1019 17 c53 -30 69 -49 42 -49 -19 0 -107 58 -107 70 0 15 5 13
65 -21z m-2262 6 c-1 -5 -12 -13 -25 -17 -17 -4 -18 -6 -5 -7 10 -1 29 6 42
15 28 18 77 13 101 -10 19 -19 18 -28 -6 -54 -21 -23 -14 -32 8 -10 7 7 12 8
12 2 0 -6 -3 -14 -7 -18 -4 -3 -8 -16 -10 -28 -4 -26 -41 -68 -60 -68 -7 0
-13 -4 -13 -10 0 -5 5 -10 10 -10 18 0 11 -19 -21 -55 -17 -19 -38 -35 -48
-35 -14 -1 -14 -2 2 -11 25 -15 21 -25 -20 -54 -48 -32 -57 -32 -49 3 l6 27
-16 -22 c-9 -13 -24 -23 -33 -23 -14 -1 -14 -2 2 -14 25 -19 21 -32 -18 -50
-19 -9 -37 -21 -40 -26 -10 -16 -65 -12 -71 5 -4 10 -19 15 -48 14 l-41 -1 43
-11 c54 -13 56 -36 4 -65 -35 -20 -52 8 -47 77 3 35 -1 64 -10 80 -22 40 -47
140 -38 154 4 7 8 19 10 27 3 23 34 40 71 40 l34 0 -23 20 -24 20 24 20 c26
22 61 26 79 8 9 -9 15 -9 24 0 9 9 8 12 -5 12 -9 0 -17 4 -17 10 0 19 95 56
105 40 3 -4 15 -6 26 -3 19 5 19 7 5 15 -9 5 -14 14 -10 19 8 13 100 7 97 -6z
m2565 -36 c-3 -33 -4 -33 -8 8 -3 23 -2 39 3 34 5 -5 7 -24 5 -42z m-3280 21
c21 -20 30 -60 14 -60 -17 0 -41 26 -48 53 -7 32 4 35 34 7z m2802 -5 c13 -14
21 -25 18 -25 -8 0 -48 36 -48 44 0 10 6 7 30 -19z m332 -17 c27 -18 45 -34
39 -36 -14 -5 -89 38 -95 55 -8 19 1 16 56 -19z m-1122 18 c0 -2 -7 -9 -15
-16 -13 -11 -14 -10 -9 4 5 14 24 23 24 12z m1585 -20 c15 -22 40 -154 32
-163 -5 -4 -26 55 -50 135 -16 55 -8 68 18 28z m655 -35 c0 -25 -18 1 -25 34
l-6 30 15 -25 c8 -14 15 -32 16 -39z m-4828 32 c9 -10 23 -40 32 -66 32 -97
13 -88 -33 16 -30 66 -29 84 1 50z m2482 -13 c-20 -33 -44 -47 -44 -25 0 15
38 55 52 55 5 0 1 -13 -8 -30z m41 -10 c-10 -11 -21 -17 -24 -14 -3 3 3 12 13
20 28 20 32 17 11 -6z m-1870 -10 c10 -11 16 -20 13 -20 -3 0 -13 9 -23 20
-10 11 -16 20 -13 20 3 0 13 -9 23 -20z m1132 -2 c13 3 28 -36 18 -46 -4 -4
-10 -1 -12 6 -3 6 -9 10 -13 7 -9 -6 -50 33 -50 47 0 5 10 3 23 -4 12 -7 27
-11 34 -10z m633 -13 c0 -18 -44 -59 -48 -45 -5 13 25 60 38 60 6 0 10 -7 10
-15z m-1770 -31 c0 -8 5 -13 12 -11 7 1 12 -3 13 -10 0 -7 9 -19 20 -27 17
-13 17 -15 4 -16 -10 0 -31 16 -48 35 -34 39 -40 58 -16 49 8 -4 15 -12 15
-20z m2720 -9 l34 -35 -42 17 c-39 15 -51 31 -35 46 8 9 5 12 43 -28z m1450
-60 c12 -20 20 -38 17 -41 -9 -10 -57 82 -56 107 1 23 1 23 9 -3 4 -15 18 -44
30 -63z m3 79 c3 -3 3 -13 0 -21 -5 -12 -7 -12 -14 -1 -15 23 -4 40 14 22z
m194 -26 c-3 -7 -5 -2 -5 12 0 14 2 19 5 13 2 -7 2 -19 0 -25z m-2666 4 c-13
-24 -51 -58 -51 -45 0 6 9 22 21 37 23 30 45 36 30 8z m99 14 c0 -2 -7 -9 -15
-16 -13 -11 -14 -10 -9 4 5 14 24 23 24 12z m1912 -164 c42 -50 89 -113 104
-139 15 -26 33 -55 39 -63 6 -8 22 -33 36 -55 l24 -40 -33 21 c-39 24 -127
127 -113 132 6 2 20 -2 33 -9 13 -6 -20 33 -73 87 -108 112 -135 148 -144 190
l-6 29 28 -31 c15 -17 63 -72 105 -122z m-2523 111 c15 -33 -2 -36 -32 -5
l-26 27 24 0 c15 0 28 -8 34 -22z m451 9 c0 -5 -9 -17 -20 -27 -16 -14 -20
-15 -20 -4 0 16 19 39 32 39 4 0 8 -4 8 -8z m-2199 -106 c13 -52 14 -66 4 -66
-7 0 -23 28 -34 62 -26 77 -27 92 -4 79 10 -5 24 -37 34 -75z m2139 65 c-13
-26 -33 -37 -38 -23 -2 8 -15 3 -35 -14 -20 -17 -33 -22 -35 -14 -3 7 -13 4
-28 -11 -13 -12 -27 -19 -31 -16 -10 10 29 48 46 45 9 -1 28 6 43 16 15 10 31
15 36 12 6 -3 15 1 22 9 18 22 33 18 20 -4z m-486 -113 c-28 -85 -54 -141 -54
-115 0 8 68 195 75 208 15 23 10 2 -21 -93z m134 90 c16 -16 15 -28 -3 -28 -8
0 -15 2 -15 4 0 2 -3 11 -6 20 -7 19 7 21 24 4z m111 -4 c36 -7 40 -19 10 -27
-16 -4 -20 -11 -16 -26 3 -12 2 -19 -3 -16 -4 2 -10 -9 -14 -26 -3 -17 -10
-28 -16 -24 -5 3 -10 -1 -10 -9 0 -28 -20 -17 -21 12 l-1 27 -8 -30 c-6 -23
-8 -15 -9 37 -1 84 13 97 88 82z m3058 -24 c2 -32 -13 -48 -29 -32 -8 8 -6 18
6 36 9 15 17 26 19 26 1 0 3 -13 4 -30z m-3000 -17 c-9 -9 -20 -13 -24 -9 -4
4 1 14 11 22 25 18 35 8 13 -13z m3028 -32 c-9 -16 -25 -3 -18 15 4 10 9 12
15 6 6 -6 7 -15 3 -21z m-1865 -25 c0 -25 -15 -52 -22 -40 -2 5 -5 24 -6 41
-2 25 1 31 13 27 8 -4 15 -16 15 -28z m-966 -19 l-17 -32 22 19 c27 24 28 3 1
-24 -22 -22 -60 -26 -78 -8 -8 8 -1 21 29 50 46 45 67 42 43 -5z m1644 31 c9
-9 12 -9 12 0 0 15 37 16 42 1 2 -5 12 -12 23 -14 11 -2 22 -4 25 -5 3 -1 8
-2 13 -1 4 0 7 -6 7 -14 0 -8 -9 -15 -21 -15 -11 0 -17 -4 -14 -10 3 -5 15
-10 25 -10 11 0 35 -8 54 -17 28 -15 35 -24 38 -56 3 -34 1 -38 -27 -47 l-30
-10 35 5 c34 4 80 -20 80 -42 0 -5 17 -7 39 -5 34 3 41 0 62 -29 14 -21 19
-34 12 -36 -7 -3 -9 -11 -6 -20 7 -18 -7 -12 -41 16 -18 15 -19 15 -14 -6 10
-37 -8 -26 -25 15 -12 27 -16 31 -16 15 -1 -12 17 -43 39 -70 21 -26 51 -62
65 -80 18 -22 38 -33 65 -38 58 -10 57 -22 -3 -23 -29 0 -66 -2 -84 -5 -23 -3
-30 -1 -26 9 4 12 0 12 -28 0 -19 -7 -45 -17 -58 -21 -21 -7 -23 -5 -18 16 l6
24 -18 -24 -19 -24 -30 24 c-32 25 -39 43 -22 54 6 4 8 11 5 16 -4 5 -13 2
-22 -6 -19 -20 -21 -19 -73 28 -41 38 -41 39 -24 59 18 19 18 19 -8 13 -45
-11 -98 29 -98 74 0 15 5 32 11 38 7 7 -1 12 -29 17 -45 7 -61 22 -72 69 -8
31 -8 30 -9 -13 -2 -51 -15 -40 -26 23 -7 34 -5 37 16 38 l24 0 -23 9 c-12 5
-27 21 -32 35 -21 54 -19 55 98 55 71 0 112 -4 120 -12z m-3748 -28 c12 -23
12 -24 -3 -11 -10 7 -17 20 -17 29 0 18 3 16 20 -18z m4950 -22 c0 -5 -4 -6
-10 -3 -5 3 -10 -1 -10 -9 0 -25 -17 -18 -24 9 -9 37 2 50 25 29 10 -9 19 -21
19 -26z m-4941 -63 c33 -77 37 -95 22 -95 -14 0 -27 21 -55 92 -30 76 -32 90
-12 82 8 -3 29 -39 45 -79z m3926 59 c15 -14 25 -28 22 -30 -10 -10 -62 21
-65 39 -5 24 11 21 43 -9z m-2047 -13 c3 -8 -1 -12 -9 -9 -7 2 -15 10 -17 17
-3 8 1 12 9 9 7 -2 15 -10 17 -17z m3097 9 c3 -5 1 -10 -4 -10 -6 0 -11 5 -11
10 0 6 2 10 4 10 3 0 8 -4 11 -10z m-4241 -134 c-4 -25 -10 -46 -14 -46 -10 0
-20 63 -19 120 l0 45 19 -37 c15 -28 18 -47 14 -82z m1139 99 c78 -20 131 -49
197 -104 30 -25 51 -39 46 -31 -4 8 11 -5 34 -30 68 -72 132 -221 111 -257
-11 -21 -10 -24 -36 77 -9 36 -23 76 -31 90 -10 16 -13 18 -8 5 63 -180 58
-339 -17 -491 -88 -179 -242 -289 -418 -299 l-76 -4 83 13 c82 14 147 34 138
43 -2 3 -13 0 -24 -6 -10 -5 -49 -15 -85 -21 -87 -14 -194 1 -269 38 -31 15
-54 24 -52 20 10 -17 88 -50 148 -64 l61 -14 -54 6 c-30 3 -80 17 -110 32 -57
27 -157 117 -181 162 -7 14 16 -5 51 -41 35 -36 43 -43 17 -14 -59 67 -104
156 -120 241 -11 57 -14 63 -19 38 -4 -17 -7 6 -8 56 -2 163 55 306 164 416
131 132 295 182 458 139z m2887 -2 c0 -10 10 -34 21 -53 l21 -35 -27 25 c-33
30 -48 57 -40 70 10 16 25 11 25 -7z m-2686 -27 c-5 -29 -13 -31 -30 -10 -8
10 -12 12 -8 4 7 -13 5 -13 -9 -1 -22 18 -14 28 22 27 23 -1 28 -5 25 -20z
m-1004 0 c0 -15 -18 -31 -26 -23 -7 7 7 37 17 37 5 0 9 -6 9 -14z m2972 -68
c25 -26 25 -28 6 -28 -11 0 -36 9 -54 21 -25 15 -34 28 -34 48 0 41 13 46 35
15 11 -16 32 -41 47 -56z m88 38 c0 -5 -7 -3 -15 4 -8 7 -15 20 -15 28 0 13 3
12 15 -4 8 -10 15 -23 15 -28z m851 8 c16 -14 16 -18 4 -31 -19 -19 -35 -8
-35 23 0 28 7 30 31 8z m46 -46 c-3 -8 -6 -5 -6 6 -1 11 2 17 5 13 3 -3 4 -12
1 -19z m-4652 -2 c38 -16 56 -42 54 -83 -1 -18 -3 -22 -6 -10 -3 12 -10 16
-20 12 -10 -3 -25 4 -37 17 -19 20 -46 64 -46 74 0 8 21 4 55 -10z m528 -21
c-3 -9 -8 -14 -10 -11 -3 3 -2 9 2 15 9 16 15 13 8 -4z m-851 -37 c14 -18 41
-61 61 -96 29 -50 34 -63 20 -60 -15 3 -123 160 -123 180 0 17 19 6 42 -24z
m4076 11 c7 -12 11 -23 8 -26 -8 -9 -36 17 -36 33 0 20 13 17 28 -7z m912 -11
c0 -5 -5 -6 -12 -2 -8 5 -9 0 -5 -15 4 -18 3 -20 -9 -10 -15 12 -19 41 -7 52
7 8 33 -11 33 -25z m-1394 -20 c1 -43 -6 -42 -35 8 l-21 35 27 -3 c24 -3 27
-8 29 -40z m1192 7 c-3 -3 -9 2 -12 12 -6 14 -5 15 5 6 7 -7 10 -15 7 -18z
m-401 -60 c21 -31 29 -52 22 -56 -7 -4 -6 -8 3 -11 15 -6 81 -108 70 -108 -11
0 -67 61 -81 88 -7 12 -9 27 -6 32 3 5 0 12 -7 17 -14 8 -78 99 -78 110 0 16
49 -30 77 -72z m-3717 39 c0 -8 -4 -12 -10 -9 -5 3 -10 10 -10 16 0 5 5 9 10
9 6 0 10 -7 10 -16z m-20 -14 c0 -5 -4 -10 -10 -10 -5 0 -10 5 -10 10 0 6 5
10 10 10 6 0 10 -4 10 -10z m-30 -6 c0 -12 -34 -33 -52 -34 -11 0 -18 7 -18
20 0 16 7 20 35 20 19 0 35 -3 35 -6z m3490 -12 c0 -10 5 -23 12 -30 9 -9 9
-15 0 -24 -19 -19 -45 12 -36 45 7 30 24 36 24 9z m893 -6 c3 -8 -1 -17 -9
-20 -8 -3 -14 -4 -14 -2 0 3 -3 11 -6 20 -4 10 -1 16 9 16 8 0 17 -6 20 -14z
m-2161 -24 c6 -16 58 -24 59 -10 1 7 4 0 8 -17 8 -35 4 -55 -13 -55 -35 0
-121 -35 -151 -61 -31 -27 -35 -37 -35 -78 0 -37 5 -52 24 -70 14 -13 26 -38
28 -58 4 -34 1 -38 -55 -79 -33 -24 -63 -45 -68 -45 -5 -1 -12 -2 -16 -4 -5
-1 -21 -5 -38 -10 -16 -4 -39 -13 -51 -20 -23 -15 -274 -79 -280 -72 -3 2 1
17 7 33 17 43 24 274 10 330 -7 25 -10 49 -7 52 3 3 47 8 98 13 180 15 280 48
429 138 38 23 46 25 51 13z m1989 -29 c5 -14 8 -28 5 -30 -4 -5 -36 50 -36 62
0 14 22 -9 31 -32z m210 -6 c-13 -13 -15 1 -4 30 7 17 8 17 11 -1 2 -10 -1
-23 -7 -29z m178 -19 c33 -75 65 -168 59 -174 -12 -11 -48 49 -68 111 -11 39
-25 82 -30 98 -17 52 11 28 39 -35z m-1152 12 c1 -11 0 -20 -2 -20 -2 0 -9 9
-15 20 -8 15 -8 20 3 20 7 0 13 -9 14 -20z m-2864 -81 c-12 -45 -23 -95 -24
-113 -1 -35 -4 -28 -14 29 -6 34 -9 37 -16 20 -6 -13 -7 -4 -3 29 7 63 14 82
24 66 5 -9 15 -2 31 19 12 17 23 31 24 31 1 0 -9 -37 -22 -81z m3857 30 c0 -4
-9 -5 -20 -2 -11 3 -20 12 -20 19 0 12 4 12 20 2 11 -7 20 -16 20 -19z m-1725
-2 c79 -18 151 -50 164 -75 21 -40 -50 -79 -189 -102 -41 -7 -80 -16 -86 -21
-6 -5 -14 -6 -17 -2 -4 3 -7 0 -7 -8 0 -11 -2 -11 -10 1 -8 13 -10 13 -10 -1
0 -15 19 -29 40 -29 5 0 11 10 13 23 4 20 4 19 6 -4 1 -26 -1 -27 -70 -33 -73
-8 -208 2 -192 13 6 3 12 16 15 27 5 20 0 23 -51 29 -73 9 -168 39 -192 61
-41 37 -18 67 81 99 134 44 359 54 505 22z m-3190 -24 c21 -21 42 -47 47 -57
9 -17 7 -17 -18 3 -38 29 -88 91 -75 91 5 0 26 -17 46 -37z m3572 -142 l83
-62 -23 -37 c-12 -20 -28 -50 -35 -65 -7 -16 -16 -27 -20 -25 -131 58 -133 60
-164 122 -18 35 -31 74 -29 91 1 17 -6 47 -15 67 -10 23 -14 47 -10 64 l7 27
62 -60 c34 -33 99 -88 144 -122z m1385 122 c-3 -16 -7 -22 -10 -15 -4 13 4 42
11 42 2 0 2 -12 -1 -27z m-631 -25 c44 -30 105 -148 114 -222 9 -68 -14 -150
-80 -284 -67 -139 -149 -247 -230 -305 l-30 -22 35 46 c81 107 123 154 118
132 -4 -13 -4 -23 -2 -23 7 0 54 99 54 115 0 9 11 31 25 49 14 18 25 41 25 52
0 15 2 16 9 5 11 -16 15 -4 26 77 3 24 12 51 20 59 8 8 15 26 15 41 0 63 -66
245 -80 222 -3 -5 -20 10 -38 35 -35 50 -31 56 19 23z m425 -16 c0 -4 4 -15 8
-24 4 -10 6 -22 4 -28 -2 -6 -11 11 -21 37 -12 31 -13 43 -5 35 7 -7 13 -16
14 -20z m-668 8 c-92 -12 -191 -79 -228 -155 -17 -36 -20 -51 -12 -73 8 -23 6
-32 -14 -55 -28 -33 -31 -63 -8 -88 14 -15 14 -23 3 -53 -7 -20 -17 -36 -22
-36 -5 0 -1 -7 8 -16 15 -16 14 -20 -20 -54 -23 -24 -33 -40 -26 -44 16 -10
14 -23 -4 -30 -20 -7 -53 66 -66 148 -10 58 -39 129 -59 141 -12 8 -13 25 -1
25 5 0 23 14 41 30 18 17 24 27 15 23 -20 -7 -15 7 13 40 8 9 13 20 9 23 -3 3
-21 -18 -41 -48 -20 -29 -36 -49 -36 -45 0 24 47 94 94 140 95 93 201 136 336
135 l75 -1 -57 -7z m882 -59 c0 -29 -12 -32 -31 -9 -20 22 -25 49 -12 62 10
10 43 -32 43 -53z m-899 26 c-6 -8 -8 -17 -5 -20 4 -3 -6 -12 -20 -19 -23 -10
-29 -9 -36 2 -15 24 6 40 64 49 5 0 3 -5 -3 -12z m-1954 -64 c-2 -16 -4 -5 -4
22 0 28 2 40 4 28 2 -13 2 -35 0 -50z m1254 30 c-9 -16 -10 -14 -11 12 0 21 3
26 11 18 8 -8 8 -16 0 -30z m779 -17 c0 -5 7 -19 17 -30 9 -12 -1 -4 -21 17
-20 21 -34 42 -30 48 6 10 33 -17 34 -35z m-520 8 c0 -2 -9 0 -20 6 -11 6 -20
13 -20 16 0 2 9 0 20 -6 11 -6 20 -13 20 -16z m1503 8 c9 -10 27 -65 41 -122
28 -119 44 -277 25 -247 -6 10 -13 37 -15 60 -3 23 -7 49 -10 57 -3 8 -9 44
-13 80 -5 37 -20 94 -34 128 -25 63 -23 77 6 44z m-4463 3 c0 -2 -10 -9 -22
-15 -22 -11 -22 -10 -4 4 21 17 26 19 26 11z m3321 -16 c9 -17 8 -23 -2 -30
-20 -13 -90 -31 -96 -25 -11 11 7 36 39 56 41 25 45 25 59 -1z m-638 -21 c-9
-15 -23 -8 -23 12 0 17 2 19 14 8 8 -7 12 -16 9 -20z m1657 13 c0 -19 -17 -38
-25 -29 -7 7 7 48 16 48 5 0 9 -9 9 -19z m-2380 -11 c9 -16 8 -18 -5 -14 -8 4
-15 12 -15 20 0 20 7 17 20 -6z m690 10 c0 -5 -4 -10 -10 -10 -5 0 -10 5 -10
10 0 6 5 10 10 10 6 0 10 -4 10 -10z m775 -17 c-1 -16 2 -33 7 -39 12 -17 -3
-54 -22 -54 -20 0 -44 32 -53 71 -5 21 -2 28 16 37 39 19 53 14 52 -15z
m-3861 -51 c27 -22 65 -43 85 -47 20 -4 30 -10 24 -12 -7 -3 -36 2 -65 11 -40
11 -65 28 -103 67 -44 45 -46 49 -20 36 17 -8 53 -33 79 -55z m4529 39 c-3
-10 3 -33 11 -50 9 -17 21 -43 26 -58 10 -27 9 -27 -6 -8 -24 29 -64 117 -58
127 10 16 32 8 27 -11z m-4173 4 c0 -2 -18 -14 -40 -25 -22 -11 -40 -18 -40
-15 0 2 17 13 38 24 42 23 42 23 42 16z m2805 -32 c18 -42 16 -46 -19 -37 -21
5 -24 9 -15 20 7 8 10 16 7 19 -8 8 -48 -7 -42 -16 3 -5 0 -9 -5 -9 -6 0 -11
7 -11 15 0 8 6 15 14 15 7 0 19 7 26 15 19 23 28 18 45 -22z m615 13 c0 -7 3
-27 6 -43 5 -25 2 -30 -30 -46 -57 -27 -114 -33 -122 -13 -15 39 4 64 68 89
76 30 78 31 78 13z m987 -61 c-7 -13 -15 -25 -19 -25 -11 0 -30 70 -23 88 6
15 9 14 30 -10 20 -24 22 -31 12 -53z m-4027 29 c0 -24 47 -114 84 -159 18
-22 43 -59 56 -82 l23 -41 -38 -218 c-21 -121 -41 -227 -44 -238 -6 -15 -16
-8 -62 50 -29 37 -73 104 -96 148 -33 64 -42 75 -43 54 0 -58 84 -214 153
-282 45 -45 44 -24 7 -260 -20 -131 -30 -165 -30 -108 0 17 -5 34 -11 37 -5 4
-8 12 -6 18 3 11 -3 20 -55 79 -27 30 -44 80 -34 96 2 4 1 14 -5 22 -6 11 -9
5 -9 -20 0 -19 -3 -60 -6 -90 -4 -37 -1 -74 10 -110 22 -73 21 -73 -19 -10
-84 132 -101 250 -66 465 24 143 40 205 53 205 4 0 8 21 8 48 0 60 41 229 81
332 28 75 49 101 49 64z m84 -100 c3 -8 3 -14 0 -14 -12 0 -30 64 -25 93 5 30
5 29 12 -17 4 -26 10 -54 13 -62z m1875 59 c10 -17 10 -17 11 0 0 14 10 17 58
17 32 0 63 -5 70 -12 9 -9 12 -9 12 1 0 11 3 11 17 0 9 -8 18 -13 20 -11 1 1
11 1 21 1 38 -3 -58 -15 -139 -18 -85 -2 -139 9 -139 29 0 17 58 11 69 -7z
m1213 0 c-6 -10 -13 -37 -17 -60 -9 -57 -25 -65 -25 -12 0 30 6 50 22 66 26
27 32 29 20 6z m-716 -24 c26 -13 54 -35 63 -48 15 -23 15 -24 -5 -13 -11 6
-26 18 -33 26 -18 22 -65 34 -166 42 -67 5 -84 9 -65 15 47 15 157 3 206 -22z
m1596 5 c-3 -17 -8 -22 -15 -15 -7 7 -6 15 3 26 17 20 18 19 12 -11z m-3945
-16 c-3 -8 -6 -5 -6 6 -1 11 2 17 5 13 3 -3 4 -12 1 -19z m2998 12 c6 -10 -22
-71 -38 -82 -6 -4 -15 -4 -20 -1 -5 3 -15 -4 -23 -16 -8 -12 -19 -21 -25 -21
-11 0 -12 80 -1 95 19 27 95 45 107 25z m-1065 -13 c80 0 137 -2 128 -4 -10
-3 -18 -9 -18 -14 0 -6 -4 -8 -9 -4 -5 3 -11 -5 -13 -17 -3 -22 -8 -23 -88
-26 -101 -3 -130 2 -130 26 0 15 2 15 10 2 8 -13 10 -13 10 2 0 12 -17 20 -62
32 -49 12 -53 14 -18 9 25 -3 110 -6 190 -6z m-261 -55 c46 -14 95 -17 264
-17 135 0 195 -3 170 -8 -21 -5 -45 -11 -53 -14 -8 -4 -18 -5 -22 -5 -5 1 -8
-9 -8 -22 0 -15 -7 -26 -20 -29 -16 -4 -20 0 -21 21 l-2 27 -4 -27 c-4 -28 -5
-28 -76 -28 -81 0 -94 5 -98 39 -4 22 -13 26 -84 41 -44 10 -93 23 -110 30
-16 7 -33 13 -37 12 -5 -1 -8 7 -8 19 l0 20 27 -20 c14 -12 51 -29 82 -39z
m-139 -79 c-6 -65 -13 -125 -14 -133 -4 -24 -26 62 -26 102 0 20 -4 40 -10 43
-17 11 -54 -23 -91 -85 l-36 -59 -8 62 c-6 54 -4 64 12 75 71 49 179 118 182
115 2 -1 -2 -55 -9 -120z m2397 108 c13 -21 4 -72 -14 -78 -7 -3 -19 7 -29 21
-15 24 -15 28 0 51 20 30 27 31 43 6z m-3920 -13 c-3 -8 -6 -5 -6 6 -1 11 2
17 5 13 3 -3 4 -12 1 -19z m2853 -17 c0 -45 -14 -60 -64 -68 -32 -5 -36 -3
-42 22 -4 16 -2 35 3 44 13 21 52 41 81 41 19 0 22 -5 22 -39z m-315 -46 c29
-37 50 -108 40 -132 -5 -14 -11 -5 -24 37 -20 63 -46 106 -72 121 -24 12 -25
-3 -3 -25 8 -9 14 -22 12 -28 -3 -7 1 -19 9 -26 9 -9 10 -19 3 -31 -5 -10 -8
-20 -7 -22 1 -2 -6 5 -15 16 -10 11 -16 26 -13 33 2 6 -2 12 -10 12 -19 0 -19
-31 0 -56 20 -27 18 -44 -6 -44 -13 0 -18 4 -13 12 5 8 2 9 -9 5 -12 -5 -19 1
-23 18 -4 18 -13 25 -30 25 -26 0 -75 20 -86 35 -12 16 -9 28 5 17 24 -20 74
-23 111 -8 29 12 36 21 37 43 2 36 2 35 -7 57 -7 17 -4 17 36 -5 23 -13 53
-37 65 -54z m1179 5 c4 -21 3 -31 -3 -25 -5 6 -12 26 -16 45 -5 23 -4 32 3 25
5 -5 12 -26 16 -45z m-3691 -2 c9 -21 14 -38 11 -38 -5 0 -34 64 -34 76 0 12
7 0 23 -38z m3926 -12 c-12 -26 -20 -31 -32 -19 -4 3 3 17 15 30 26 28 33 24
17 -11z m-2305 -31 c84 -24 234 -38 351 -32 95 4 103 4 57 -5 -51 -11 -53 -12
-47 -37 4 -17 3 -23 -3 -16 -6 6 -12 19 -14 29 -3 19 -3 19 -18 1 -9 -11 -10
-16 -2 -11 8 5 12 0 12 -13 0 -19 -6 -21 -59 -21 -86 0 -121 9 -121 31 0 21
16 26 23 7 4 -8 6 -7 6 3 1 13 -16 19 -81 29 -45 6 -104 20 -130 30 -33 12
-48 14 -48 7 0 -7 -7 1 -15 17 -20 39 -19 41 12 17 14 -12 49 -28 77 -36z
m2226 26 c0 -4 -7 -16 -15 -27 -13 -18 -14 -16 -15 20 0 33 2 37 15 26 8 -7
15 -16 15 -19z m-2103 -13 c-3 -8 -6 -5 -6 6 -1 11 2 17 5 13 3 -3 4 -12 1
-19z m473 -3 c0 -7 5 -15 12 -17 6 -2 9 -11 6 -18 -3 -10 -10 -5 -21 17 -19
37 -21 47 -7 38 6 -3 10 -12 10 -20z m610 -4 c-5 -11 -10 -31 -10 -45 0 -33
-10 -57 -21 -50 -5 3 -9 -1 -9 -8 0 -8 -9 -14 -20 -15 -16 -1 -18 2 -9 24 6
18 6 30 0 36 -7 7 -14 2 -20 -14 -10 -24 -10 -23 -10 6 -1 41 8 52 54 68 55
20 57 20 45 -2z m170 0 c-5 -11 -10 -30 -10 -42 0 -12 -3 -20 -6 -16 -10 9 5
77 17 77 6 0 6 -7 -1 -19z m-1731 -81 c-15 -74 -18 -79 -18 -40 -1 53 -13 45
-34 -25 -9 -27 -16 -43 -16 -34 -2 30 28 111 54 151 15 22 28 38 29 36 2 -1
-5 -41 -15 -88z m1611 76 c0 -7 -8 -31 -17 -52 l-18 -39 -3 38 c-3 37 10 67
29 67 5 0 9 -6 9 -14z m1024 -11 c15 -22 15 -27 -1 -60 -20 -41 -36 -44 -58
-11 -16 25 -12 49 13 79 20 23 27 22 46 -8z m-2485 -85 c-12 -102 -32 -144
-26 -57 2 31 2 57 0 57 -8 0 -26 -58 -39 -125 l-14 -70 4 71 c3 39 12 89 21
110 16 39 57 105 62 100 2 -1 -2 -40 -8 -86z m2241 67 c0 -13 2 -60 5 -103 l5
-79 -15 60 c-17 70 -19 145 -5 145 6 0 10 -11 10 -23z m-2459 -44 c-11 -27
-24 -74 -30 -104 -6 -30 -18 -79 -26 -109 -22 -79 -19 -145 10 -214 13 -33 23
-61 22 -62 -14 -11 -161 -53 -167 -47 -9 10 -40 338 -40 424 0 82 10 93 117
124 43 13 89 27 103 33 14 5 26 9 28 7 1 -1 -6 -25 -17 -52z m916 51 c-3 -3
-12 -4 -19 -1 -8 3 -5 6 6 6 11 1 17 -2 13 -5z m-568 -45 c13 -11 21 -22 19
-25 -3 -3 -19 6 -34 20 -34 30 -20 35 15 5z m212 -8 c7 11 9 10 9 -4 0 -20
-22 -19 -26 1 -2 9 -1 9 3 1 4 -8 8 -7 14 2z m246 -13 c-3 -8 -6 -5 -6 6 -1
11 2 17 5 13 3 -3 4 -12 1 -19z m368 12 c3 -5 2 -10 -4 -10 -5 0 -13 5 -16 10
-3 6 -2 10 4 10 5 0 13 -4 16 -10z m1725 -119 c0 -126 -19 -280 -32 -256 -7
11 -6 51 2 114 7 53 11 137 8 185 -4 75 -3 86 9 70 9 -12 13 -50 13 -113z
m-2456 10 c15 -57 25 -106 22 -108 -6 -6 -30 50 -48 110 l-13 42 -6 -50 -6
-50 -1 63 c-2 53 12 112 23 100 1 -1 15 -50 29 -107z m2192 84 c14 -21 14 -28
3 -41 -12 -14 -14 -14 -20 3 -9 21 -11 63 -4 63 2 0 12 -11 21 -25z m98 10
c-4 -8 -11 -15 -16 -15 -6 0 -5 6 2 15 7 8 14 15 16 15 2 0 1 -7 -2 -15z
m-2409 -5 c3 -5 1 -10 -4 -10 -6 0 -11 5 -11 10 0 6 2 10 4 10 3 0 8 -4 11
-10z m355 -19 c151 -5 176 -8 135 -15 -27 -5 -44 -11 -37 -13 6 -3 12 -13 12
-23 0 -15 -11 -18 -90 -19 -90 -2 -90 -2 -90 23 0 26 -3 27 -97 41 -24 4 -46
12 -50 18 -4 7 0 8 13 2 10 -4 102 -11 204 -14z m223 2 c-7 -2 -19 -2 -25 0
-7 3 -2 5 12 5 14 0 19 -2 13 -5z m1802 -23 c6 -20 -14 -90 -26 -90 -8 0 -39
46 -39 58 0 11 39 52 50 52 5 0 12 -9 15 -20z m-1176 -38 c-11 -33 -23 -38
-49 -22 -12 8 -10 14 15 40 34 35 50 27 34 -18z m67 13 c-26 -28 -46 -32 -46
-10 0 16 27 34 52 35 14 0 13 -4 -6 -25z m-789 -7 c-3 -8 -6 -5 -6 6 -1 11 2
17 5 13 3 -3 4 -12 1 -19z m-212 2 c3 -5 1 -10 -4 -10 -6 0 -11 5 -11 10 0 6
2 10 4 10 3 0 8 -4 11 -10z m809 -92 c4 -20 3 -49 -1 -65 -7 -25 -8 -24 -14
22 -4 28 -10 70 -14 95 -6 44 -6 45 8 15 8 -16 17 -47 21 -67z m1240 50 c9
-12 16 -25 16 -29 0 -11 -37 -49 -48 -49 -17 0 -26 68 -12 85 17 20 26 19 44
-7z m-1806 -2 c-52 -8 -58 -12 -58 -33 0 -21 -4 -23 -52 -23 -41 0 -57 5 -77
24 -15 13 -45 28 -69 33 -30 5 11 8 135 8 142 0 167 -2 121 -9z m-2001 -18
c-3 -8 -6 -5 -6 6 -1 11 2 17 5 13 3 -3 4 -12 1 -19z m823 -45 c0 -36 -2 -64
-4 -62 -8 8 -17 109 -11 119 12 20 15 9 15 -57z m676 -87 c2 -56 6 -120 9
-143 6 -45 -8 -60 -20 -22 -4 12 -12 18 -21 15 -9 -3 -16 4 -20 19 -3 14 -13
25 -20 25 -8 0 -20 12 -26 26 -10 22 -10 28 5 39 9 7 17 16 17 21 0 4 -5 3
-12 -4 -7 -7 -18 -12 -26 -12 -9 0 -4 8 12 21 36 28 66 90 66 136 l1 38 15
-29 c11 -19 17 -63 20 -130z m751 132 c-3 -8 -6 -5 -6 6 -1 11 2 17 5 13 3 -3
4 -12 1 -19z m1363 -9 c0 -17 -4 -28 -10 -24 -5 3 -10 17 -10 31 0 13 5 24 10
24 6 0 10 -14 10 -31z m-1795 -43 c17 -19 39 -51 50 -73 42 -81 67 -116 75
-103 6 9 17 6 46 -14 43 -29 74 -34 74 -12 0 14 76 36 125 36 14 0 25 6 25 13
1 26 60 77 89 77 13 0 3 -28 -18 -55 -15 -19 -15 -19 4 -5 11 8 24 21 28 28
11 17 36 15 43 -3 4 -8 -1 -26 -10 -40 -9 -13 -13 -31 -9 -41 5 -13 2 -15 -15
-10 -11 4 -23 2 -27 -4 -3 -5 1 -10 10 -10 10 0 15 -6 13 -17 -2 -10 -10 -17
-17 -15 -7 1 -19 -5 -26 -15 -13 -17 -14 -17 -20 -1 -6 14 -10 15 -38 3 -18
-7 -65 -12 -109 -11 -43 1 -78 -3 -78 -7 0 -5 -6 -4 -14 2 -11 9 -15 9 -20 -1
-3 -7 -3 -1 -1 15 3 19 0 25 -8 20 -27 -17 -56 -9 -62 17 -3 14 -18 39 -32 55
-15 18 -23 23 -19 12 3 -10 6 -30 6 -43 0 -14 6 -24 14 -24 8 0 18 -5 21 -10
7 -12 -12 -40 -26 -40 -17 0 -49 45 -49 68 0 19 -4 23 -20 19 -11 -3 -20 0
-20 6 0 7 -7 4 -14 -5 -18 -25 -46 -23 -46 3 0 11 -4 17 -10 14 -15 -9 -12 12
6 47 21 41 13 98 -20 148 l-26 39 48 -14 c30 -9 58 -26 77 -49z m829 29 c-4
-8 -8 -15 -10 -15 -2 0 -4 7 -4 15 0 8 4 15 10 15 5 0 7 -7 4 -15z m1230 0
c-7 -16 -24 -21 -24 -6 0 8 7 13 27 20 1 1 0 -6 -3 -14z m-3885 -76 c-4 -8
-10 -40 -14 -70 -3 -30 -12 -90 -20 -134 -27 -149 -67 -430 -67 -475 0 -37 -2
-41 -10 -25 -8 14 -8 44 1 110 30 223 64 449 81 549 11 60 21 114 21 120 1 6
5 -5 8 -24 4 -19 4 -42 0 -51z m3571 64 c0 -5 -5 -25 -11 -47 -6 -21 -17 -82
-24 -135 l-13 -96 -1 91 c-1 91 20 194 39 194 6 0 10 -3 10 -7z m284 -29 c5
-18 1 -33 -11 -48 -10 -11 -19 -23 -20 -25 -1 -2 -9 1 -16 8 -12 9 -13 7 -10
-12 5 -25 -44 -84 -59 -69 -25 25 9 118 40 107 7 -3 10 -1 7 4 -6 10 40 61 54
61 5 0 12 -12 15 -26z m-2705 -49 c-6 -21 -8 -57 -5 -79 3 -28 2 -35 -4 -21
-17 40 -7 185 11 153 5 -8 3 -32 -2 -53z m2611 40 c0 -8 -4 -17 -10 -20 -6 -4
-10 5 -10 20 0 15 4 24 10 20 6 -3 10 -12 10 -20z m-1737 8 c-15 -3 -23 -12
-24 -26 -1 -21 -1 -21 -7 -2 -4 11 -15 21 -24 23 -13 2 -18 -4 -19 -25 -2 -24
-2 -24 -6 -5 -2 12 -9 22 -15 22 -6 0 -8 -9 -5 -20 3 -11 1 -20 -4 -20 -5 0
-9 8 -9 17 0 9 -3 13 -7 10 -7 -8 -33 11 -33 24 0 5 39 8 88 8 48 -1 77 -4 65
-6z m-1918 -26 c23 -13 52 -43 70 -71 26 -44 30 -58 30 -125 0 -65 -4 -83 -28
-123 -15 -26 -38 -53 -50 -59 -17 -10 -15 -4 11 25 40 45 55 81 46 109 -4 11
-1 23 7 28 12 7 12 11 1 17 -8 6 -11 18 -7 34 6 24 -17 98 -31 98 -3 0 -4 -6
-1 -14 3 -8 3 -17 -1 -19 -4 -2 -2 -2 5 -1 12 3 29 -53 19 -63 -3 -4 -6 1 -6
10 0 10 -14 26 -31 36 -25 16 -28 20 -15 28 10 6 12 13 6 23 -8 13 -12 12 -25
-5 -14 -19 -15 -18 -4 8 12 26 13 26 31 11 10 -10 18 -12 18 -6 0 15 -57 57
-95 70 -22 7 -24 11 -10 11 11 0 38 -9 60 -22z m1161 6 c-3 -10 -8 -30 -12
-45 -3 -16 -10 -28 -15 -28 -5 0 -9 -7 -9 -15 0 -8 -4 -15 -10 -15 -5 0 -10 8
-10 18 0 10 -3 22 -7 26 -4 3 -7 15 -8 26 -2 19 8 24 42 23 7 0 12 2 11 6 -1
14 3 21 13 21 6 0 8 -8 5 -17z m711 -25 c-3 -8 -6 -5 -6 6 -1 11 2 17 5 13 3
-3 4 -12 1 -19z m-643 -192 c14 -33 25 -61 23 -63 -2 -2 -17 25 -33 59 -22 49
-29 80 -30 138 l-2 75 7 -75 c5 -46 18 -98 35 -134z m-1252 152 c-10 -10 -10
-8 -2 37 1 6 4 2 7 -9 3 -10 0 -23 -5 -28z m520 -21 c-25 -56 -98 -131 -136
-141 -35 -9 -76 16 -76 45 0 28 48 116 68 124 12 4 13 3 2 -10 -11 -13 -10
-14 4 -9 10 4 25 8 34 8 39 4 102 28 102 38 0 9 3 9 11 1 8 -8 5 -23 -9 -56z
m233 41 c17 -47 8 -118 -10 -88 -9 14 -38 12 -32 -2 2 -7 10 -12 17 -10 33 8
57 -59 25 -72 -22 -8 -18 -31 7 -48 l22 -14 -22 -22 c-26 -26 -28 -42 -7 -42
24 0 17 -19 -9 -26 -13 -3 -35 0 -48 7 -23 13 -23 14 -2 17 21 3 42 42 23 42
-14 0 -10 72 5 103 14 24 13 27 -3 27 -9 0 -25 -6 -34 -13 -16 -11 -16 -16 -2
-62 8 -28 15 -51 15 -53 0 -2 -9 -1 -19 3 -24 7 -37 -11 -21 -30 10 -12 10
-15 0 -15 -6 0 -17 14 -23 30 -6 17 -17 28 -24 26 -7 -3 -13 7 -16 27 -4 30
-4 30 -5 -6 -2 -42 15 -82 48 -112 15 -13 23 -16 28 -8 5 8 13 9 22 3 12 -8
11 -10 -5 -11 -16 0 -14 -4 10 -15 l30 -15 -30 6 c-33 7 -80 47 -100 85 -52
100 -5 234 99 281 49 22 55 23 61 7z m1272 -4 c-3 -3 -12 -4 -19 -1 -8 3 -5 6
6 6 11 1 17 -2 13 -5z m-72 -15 c-22 -4 -58 -7 -80 -7 -39 1 -38 1 10 8 28 4
64 7 80 7 25 1 23 -1 -10 -8z m938 -29 c-23 -39 -83 -98 -83 -82 0 12 87 112
97 112 2 0 -4 -14 -14 -30z m-2890 -18 c20 -17 22 -53 5 -70 -9 -9 -7 -17 11
-33 12 -12 19 -24 15 -28 -4 -3 -9 0 -11 7 -3 6 -11 12 -19 12 -8 0 -14 5 -14
10 0 6 -7 10 -15 10 -12 0 -13 5 -3 25 9 19 8 29 -6 50 -9 14 -12 25 -6 25 6
0 8 5 4 12 -8 13 12 3 39 -20z m3613 13 c-3 -8 -1 -15 4 -15 5 0 14 -10 21
-21 9 -18 7 -25 -10 -43 -18 -18 -23 -19 -31 -7 -5 9 -5 22 1 33 6 10 7 22 4
27 -5 10 4 41 12 41 3 0 3 -7 -1 -15z m157 0 c-3 -9 -8 -14 -10 -11 -3 3 -2 9
2 15 9 16 15 13 8 -4z m-33 -23 c0 -23 -45 -66 -59 -57 -17 10 -13 26 11 52
26 28 48 30 48 5z m-2445 -2 c3 -5 2 -10 -4 -10 -5 0 -13 5 -16 10 -3 6 -2 10
4 10 5 0 13 -4 16 -10z m2655 -80 c0 -43 -40 -194 -77 -290 -27 -69 -28 -71
-36 -43 -7 23 -2 45 22 101 34 82 61 198 61 269 1 47 1 47 15 23 8 -14 14 -41
15 -60z m-3895 60 c3 -5 1 -10 -4 -10 -6 0 -11 5 -11 10 0 6 2 10 4 10 3 0 8
-4 11 -10z m2730 -40 c-9 -16 -18 -30 -21 -30 -2 0 2 14 11 30 9 17 18 30 21
30 2 0 -2 -13 -11 -30z m-2705 10 c0 -5 -2 -10 -4 -10 -3 0 -8 5 -11 10 -3 6
-1 10 4 10 6 0 11 -4 11 -10z m1669 -29 c-15 -5 -22 6 -14 19 6 9 10 9 16 -1
5 -8 4 -15 -2 -18z m1666 -49 c-3 -3 -10 -1 -15 4 -7 7 -6 22 2 45 l13 34 3
-39 c2 -21 1 -41 -3 -44z m263 34 c6 -14 8 -26 4 -28 -4 -2 -15 -16 -24 -33
-22 -39 -40 -38 -51 2 -18 62 46 114 71 59z m-337 -3 c9 -10 9 -14 2 -10 -17
11 -38 -25 -82 -143 -46 -120 -66 -148 -46 -64 25 105 83 234 105 234 4 0 14
-8 21 -17z m-3334 -35 c-3 -8 -6 -5 -6 6 -1 11 2 17 5 13 3 -3 4 -12 1 -19z
m2663 -23 c-45 -46 -63 -59 -39 -27 15 19 72 71 79 72 2 0 -16 -20 -40 -45z
m913 -8 c-14 -31 -51 -42 -49 -16 2 28 35 64 49 50 7 -7 7 -17 0 -34z m-1493
13 c6 -11 7 -20 3 -20 -5 0 -14 9 -21 20 -7 11 -8 20 -2 20 5 0 14 -9 20 -20z
m-966 -112 c-10 -15 50 -183 80 -227 25 -37 30 -53 26 -83 -7 -52 -59 -108
-99 -108 -19 0 -34 -7 -40 -19 -6 -11 -35 -25 -71 -35 -76 -22 -90 -13 -90 55
0 26 -4 81 -10 121 -18 137 -28 273 -20 288 8 15 21 22 130 72 l55 26 22 -42
c11 -22 19 -44 17 -48z m-494 61 c0 -6 -4 -7 -10 -4 -5 3 -10 11 -10 16 0 6 5
7 10 4 6 -3 10 -11 10 -16z m1963 -10 c-10 -17 -24 -36 -32 -42 -17 -14 -11
-1 21 46 26 37 33 34 11 -4z m897 1 c0 -5 -2 -10 -4 -10 -3 0 -8 5 -11 10 -3
6 -1 10 4 10 6 0 11 -4 11 -10z m128 -20 c2 -20 -6 -33 -37 -58 -22 -18 -42
-32 -45 -32 -3 0 -6 20 -6 44 0 35 5 48 23 61 32 22 61 16 65 -15z m48 15
c-11 -8 -22 -12 -25 -9 -6 6 19 24 34 24 6 -1 1 -7 -9 -15z m-3015 -22 c13
-16 12 -17 -3 -4 -10 7 -18 15 -18 17 0 8 8 3 21 -13z m1874 -27 c-9 -13 -24
-27 -33 -31 -10 -4 -5 6 12 24 36 37 42 39 21 7z m980 -22 c0 -23 -5 -30 -23
-32 -13 -2 -31 -1 -39 3 -14 5 -11 11 12 35 34 36 50 34 50 -6z m-2735 16 c0
-5 -7 -10 -15 -10 -8 0 -15 5 -15 10 0 6 7 10 15 10 8 0 15 -4 15 -10z m-487
-45 c-2 -7 3 -18 12 -25 8 -7 15 -17 15 -23 0 -6 -13 4 -29 23 -16 20 -26 42
-23 52 4 17 5 17 17 1 7 -9 11 -22 8 -28z m480 18 c-7 -2 -19 -2 -25 0 -7 3
-2 5 12 5 14 0 19 -2 13 -5z m2306 -20 c-13 -8 -55 -56 -92 -108 -37 -51 -76
-100 -87 -110 -40 -36 -12 26 45 101 66 86 131 147 147 138 6 -4 1 -12 -13
-21z m-2639 -4 c0 -11 -4 -18 -10 -14 -5 3 -7 12 -3 20 7 21 13 19 13 -6z
m-110 -10 c0 -6 -4 -7 -10 -4 -5 3 -10 11 -10 16 0 6 5 7 10 4 6 -3 10 -11 10
-16z m145 -7 c-3 -3 -11 0 -18 7 -9 10 -8 11 6 5 10 -3 15 -9 12 -12z m2712
-22 c-10 -15 -17 -18 -22 -10 -4 6 1 20 11 31 23 25 31 8 11 -21z m-2947 -7
c23 -13 10 -11 -29 5 -9 3 -12 1 -7 -6 11 -19 2 -14 -17 9 -18 20 -18 21 5 14
13 -4 34 -14 48 -22z m3297 11 c7 -19 -6 -44 -28 -54 -8 -4 -29 -15 -46 -24
l-33 -17 0 45 c0 51 15 65 68 66 21 0 35 -6 39 -16z m82 14 c-2 -2 -16 -14
-31 -27 -27 -24 -28 -24 -28 -3 0 19 14 28 49 31 8 0 12 0 10 -1z m-4044 -55
c54 -149 113 -248 209 -350 16 -18 27 -36 23 -39 -10 -10 -90 79 -143 159 -61
92 -59 90 -61 67 -1 -11 3 -23 9 -26 7 -4 6 -9 -2 -14 -8 -5 -8 -11 3 -21 18
-19 26 -57 31 -159 2 -47 7 -97 11 -112 6 -22 4 -28 -8 -28 -19 0 -52 83 -73
184 -26 122 -39 386 -19 386 1 0 10 -21 20 -47z m784 29 c7 -13 6 -19 -2 -19
-7 0 -13 9 -13 19 0 10 1 18 3 18 1 0 7 -8 12 -18z m141 -12 c0 -10 -3 -21 -7
-23 -5 -3 -8 8 -8 23 0 15 3 26 8 23 4 -2 7 -13 7 -23z m-29 3 c13 -16 12 -17
-3 -4 -17 13 -22 21 -14 21 2 0 10 -8 17 -17z m2042 -86 l35 -89 -34 33 c-34
33 -71 129 -58 150 10 16 19 1 57 -94z m897 68 c0 -25 -15 -34 -43 -27 -11 3
-16 10 -13 19 3 8 6 18 6 23 0 10 31 19 43 13 4 -2 7 -15 7 -28z m-3086 -34
c-2 -3 -12 3 -22 13 -16 17 -16 18 5 5 12 -7 20 -15 17 -18z m2436 22 c0 -5
-17 -18 -38 -29 -20 -12 -58 -40 -84 -63 -52 -46 -58 -49 -51 -21 10 40 173
146 173 113z m1039 -154 c-35 -71 -109 -199 -115 -199 -2 0 3 21 11 48 8 26
15 51 15 55 0 5 5 5 12 1 6 -4 8 -3 4 4 -3 6 3 26 14 44 31 51 80 151 82 168
1 8 3 -1 5 -21 3 -26 -5 -54 -28 -100z m-381 83 c4 -25 -24 -53 -43 -45 -7 2
-23 -1 -38 -6 -14 -6 -28 -7 -31 -2 -11 18 9 54 38 67 43 19 70 14 74 -14z
m92 3 c-42 -16 -60 -18 -60 -6 0 11 24 19 65 19 l30 0 -35 -13z m-231 -31
c-10 -12 -14 -12 -20 -2 -6 8 -2 18 9 26 21 16 30 -2 11 -24z m-425 -19 c-15
-23 -34 -33 -34 -18 0 10 32 43 42 43 5 0 1 -11 -8 -25z m-312 -47 c14 -18 37
-57 52 -86 24 -47 25 -52 8 -43 -41 22 -122 136 -122 171 0 18 34 -6 62 -42z
m648 15 c0 -5 -4 -15 -10 -23 -11 -18 -25 -7 -17 15 6 15 27 21 27 8z m110 -8
c20 -24 2 -54 -41 -65 -58 -16 -71 -2 -49 54 8 21 16 26 44 26 18 0 39 -7 46
-15z m79 -9 c-2 -2 -15 -9 -29 -16 -23 -12 -24 -12 -11 3 7 10 20 17 29 17 8
0 13 -2 11 -4z m-3878 -177 c-30 -63 -31 -63 -26 -24 l4 40 -16 -45 c-10 -26
-37 -66 -68 -97 -29 -29 -48 -54 -42 -56 18 -6 -49 -133 -99 -187 -26 -28 -49
-48 -52 -46 -8 9 179 349 238 433 32 44 64 92 72 105 13 22 13 22 16 -18 2
-30 -5 -59 -27 -105z m3682 110 c10 -37 -2 -49 -49 -49 -37 0 -44 3 -44 20 0
14 7 20 24 20 13 0 29 7 36 15 17 21 27 19 33 -6z m-558 -113 c44 -44 125
-167 125 -190 0 -5 -23 11 -51 35 -37 31 -60 61 -80 106 -28 63 -42 81 -32 43
9 -36 -6 -21 -32 31 l-26 50 23 -12 c12 -7 45 -35 73 -63z m611 59 c-8 -8 -18
-15 -22 -15 -3 0 -1 7 6 15 7 8 17 15 22 15 5 0 3 -7 -6 -15z m-1921 -40 c-21
-19 -34 -35 -28 -35 6 0 10 -15 9 -32 -1 -20 -6 -32 -14 -30 -6 1 -17 3 -24 5
-8 1 -12 -19 -12 -63 -1 -54 -4 -65 -17 -62 -19 3 -53 -33 -45 -47 4 -6 13 -8
20 -5 8 3 17 1 20 -5 11 -18 -32 -22 -63 -7 -38 20 -41 20 -41 -4 0 -11 5 -20
12 -20 6 0 9 -2 6 -5 -3 -3 -17 -1 -32 5 -24 9 -31 6 -57 -19 -16 -16 -29 -39
-29 -50 0 -19 -4 -20 -37 -15 -21 3 -41 8 -45 10 -4 3 -17 0 -28 -6 -14 -8
-20 -8 -20 0 0 6 -5 8 -11 5 -6 -4 -19 2 -30 14 -24 25 -35 26 -43 5 -4 -11
-2 -15 8 -11 8 3 20 -1 26 -9 17 -20 -18 -19 -48 2 -12 8 -26 13 -30 10 -4 -2
-8 4 -8 14 0 12 5 16 16 12 8 -3 4 4 -9 15 l-24 20 21 35 c25 40 106 118 122
118 14 0 357 143 418 174 26 13 49 22 52 20 2 -3 -13 -20 -35 -39z m2338 -37
c-3 -18 -12 -45 -19 -60 -25 -49 -188 -238 -205 -238 -4 0 -7 9 -6 20 1 11 4
20 7 20 8 0 160 194 194 248 14 23 28 42 31 42 2 0 2 -15 -2 -32z m-4169 -73
c-4 -8 -8 -15 -10 -15 -2 0 -4 7 -4 15 0 8 4 15 10 15 5 0 7 -7 4 -15z m3137
-22 c17 -19 42 -83 35 -90 -2 -2 -14 13 -26 34 -13 21 -30 44 -38 51 -9 6 -17
19 -18 27 -3 18 23 6 47 -22z m-1291 -2 c0 -3 -11 -7 -25 -7 -24 -2 -32 6 -19
18 7 7 44 -2 44 -11z m-1896 -22 c-25 -50 -83 -137 -95 -144 -6 -4 -4 6 4 21
8 16 17 43 21 59 7 29 61 95 78 95 5 0 1 -14 -8 -31z m3322 -91 c36 -39 65
-85 93 -150 l20 -47 -59 58 c-39 39 -68 79 -88 124 -34 74 -24 78 34 15z
m-3259 -83 c-4 -8 -11 -15 -17 -15 -7 0 -7 6 0 21 13 23 26 19 17 -6z m3183
-8 c0 -5 -4 -5 -10 -2 -5 3 -10 14 -10 23 0 15 2 15 10 2 5 -8 10 -19 10 -23z
m694 -11 c-10 -20 -25 -36 -33 -36 -14 0 -14 -1 -1 -10 9 -6 10 -10 3 -10 -20
0 -24 17 -7 31 8 7 22 26 30 42 22 41 28 27 8 -17z m-1204 -7 c-12 -22 -21
-24 -38 -7 -9 9 -6 14 11 23 29 15 40 9 27 -16z m45 21 c-7 -12 26 -44 85 -83
23 -16 40 -31 37 -33 -6 -7 -95 38 -126 63 -20 17 -22 22 -12 41 6 12 14 22
17 22 3 0 2 -4 -1 -10z m-2865 -4 c0 -9 -63 -106 -67 -103 -4 5 33 89 43 100
8 8 24 10 24 3z m2590 -50 c0 -20 -8 -43 -21 -57 -18 -22 -20 -22 -15 -4 8 32
31 95 33 95 2 0 3 -15 3 -34z m835 -13 c24 -36 61 -140 53 -148 -2 -2 -25 38
-51 90 -48 96 -49 126 -2 58z m-3257 -2 c20 -45 -10 -101 -55 -101 -23 0 -31
14 -14 24 5 3 12 17 15 30 11 43 25 76 33 76 5 0 14 -13 21 -29z m2611 6 c15
-19 -18 -121 -41 -125 -18 -3 -108 55 -108 69 0 5 7 14 15 21 9 7 22 18 29 25
10 9 16 9 25 0 8 -8 14 -9 19 -1 6 10 27 21 43 23 4 1 12 -5 18 -12z m-2873
-48 c-9 -17 -13 -37 -9 -43 3 -6 3 -8 -2 -4 -4 4 -29 -25 -54 -65 -49 -75 -93
-122 -76 -82 4 11 16 43 25 71 27 77 45 108 87 144 41 36 53 28 29 -21z m1524
41 c0 -5 -2 -10 -4 -10 -3 0 -8 5 -11 10 -3 6 -1 10 4 10 6 0 11 -4 11 -10z
m1499 -76 c1 -7 8 -14 16 -18 22 -8 20 -78 -3 -106 l-18 -22 -40 20 c-21 11
-52 34 -68 51 -26 27 -28 34 -22 73 4 24 14 53 22 65 l14 23 50 -38 c27 -20
49 -42 49 -48z m-2686 -64 c-3 -3 -11 4 -19 14 -18 25 -19 113 -1 119 8 3 14
-16 18 -62 4 -36 4 -68 2 -71z m2837 103 l21 -36 -23 15 c-13 8 -24 25 -26 37
-5 30 3 26 28 -16z m855 -12 c-8 -15 -135 -101 -135 -93 0 4 18 18 40 32 22
14 40 28 40 32 0 5 5 8 11 8 6 0 17 7 25 15 17 17 28 20 19 6z m-1283 -60 c33
-29 35 -58 9 -110 -22 -42 -62 -82 -46 -46 15 36 14 96 -3 116 -8 10 -19 16
-22 14 -4 -2 -7 2 -7 9 0 8 6 12 14 9 7 -3 13 -9 13 -15 0 -5 5 -6 10 -3 7 4
7 11 2 18 -5 7 -12 20 -15 30 -8 21 3 16 45 -22z m386 -2 c11 -17 11 -24 -2
-44 -14 -21 -14 -25 4 -48 11 -14 20 -31 20 -39 0 -7 7 -24 16 -37 16 -22 16
-23 -2 -12 -11 5 -38 28 -61 50 -32 30 -40 44 -36 62 20 90 36 108 61 68z
m-2839 -24 c7 -19 17 -35 22 -35 16 0 10 -17 -17 -43 -62 -62 -118 21 -57 85
15 15 29 28 33 28 3 0 12 -16 19 -35z m2308 3 c-3 -8 -6 -5 -6 6 -1 11 2 17 5
13 3 -3 4 -12 1 -19z m402 -141 c1 -26 -23 -87 -35 -87 -26 0 -107 58 -149
108 -24 29 -30 83 -7 75 10 -4 13 -2 8 5 -3 6 3 17 15 26 20 13 26 11 94 -42
60 -46 74 -62 74 -85z m-412 91 c-3 -7 -5 -2 -5 12 0 14 2 19 5 13 2 -7 2 -19
0 -25z m-2447 8 c0 -8 -4 -18 -10 -21 -5 -3 -10 3 -10 14 0 12 5 21 10 21 6 0
10 -6 10 -14z m3680 4 c0 -5 -4 -10 -10 -10 -5 0 -10 5 -10 10 0 6 5 10 10 10
6 0 10 -4 10 -10z m-3889 -71 c-9 -22 -10 -22 -10 -3 -1 11 2 24 6 27 12 12
14 0 4 -24z m236 -26 c5 -27 14 -57 18 -68 8 -17 7 -18 -7 -7 -23 18 -48 122
-30 122 4 0 13 -21 19 -47z m2934 -13 c53 -50 54 -51 34 -68 -11 -9 -30 -30
-42 -45 l-21 -28 -35 31 c-33 29 -35 33 -26 68 11 40 30 92 34 92 2 0 27 -23
56 -50z m-261 -70 c-7 -16 -23 -36 -36 -45 -23 -15 -25 -14 -33 8 -5 13 -16
27 -24 30 -18 7 -16 32 8 80 l19 38 39 -41 c37 -38 38 -43 27 -70z m-2526 25
c-9 -14 -24 -25 -34 -25 -10 0 -21 -6 -23 -12 -3 -8 -6 -6 -6 5 -1 9 14 26 32
37 43 26 51 25 31 -5z m2349 -22 c-6 -14 -8 -14 -14 3 -12 30 -10 37 5 24 8
-6 12 -19 9 -27z"/>
<path d="M8632 6946 c10 -7 31 -11 50 -8 32 5 32 6 8 13 -14 4 -36 7 -50 8
-23 0 -23 -1 -8 -13z"/>
<path d="M7125 6279 c-4 -6 -5 -12 -2 -15 2 -3 7 2 10 11 7 17 1 20 -8 4z"/>
<path d="M7166 6195 c4 -8 8 -15 10 -15 2 0 4 7 4 15 0 8 -4 15 -10 15 -5 0
-7 -7 -4 -15z"/>
<path d="M7116 6001 c-3 -4 8 -8 23 -7 16 1 27 4 24 9 -6 10 -41 9 -47 -2z"/>
<path d="M7211 5963 c7 -12 15 -20 18 -17 3 2 -3 12 -13 22 -17 16 -18 16 -5
-5z"/>
<path d="M7055 5921 c-6 -11 13 -26 22 -17 4 3 1 6 -6 6 -7 0 -9 5 -6 10 3 6
4 10 1 10 -3 0 -7 -4 -11 -9z"/>
<path d="M7209 5907 c-11 -15 -26 -21 -50 -20 -19 0 -26 -1 -16 -4 24 -6 21
-42 -5 -70 l-21 -23 26 13 c18 8 27 20 27 36 0 15 12 35 33 52 17 15 30 29 27
32 -3 3 -12 -5 -21 -16z"/>
<path d="M7098 5893 c7 -3 16 -2 19 1 4 3 -2 6 -13 5 -11 0 -14 -3 -6 -6z"/>
<path d="M6995 5830 c-3 -5 1 -10 10 -10 9 0 13 5 10 10 -3 6 -8 10 -10 10 -2
0 -7 -4 -10 -10z"/>
<path d="M7078 5788 c5 -5 16 -8 23 -6 8 3 3 7 -10 11 -17 4 -21 3 -13 -5z"/>
<path d="M6920 5751 c0 -6 4 -13 10 -16 6 -3 7 1 4 9 -7 18 -14 21 -14 7z"/>
<path d="M8045 5960 c-3 -6 1 -7 9 -4 18 7 21 14 7 14 -6 0 -13 -4 -16 -10z"/>
<path d="M8020 5916 c0 -2 7 -7 16 -10 8 -3 12 -2 9 4 -6 10 -25 14 -25 6z"/>
<path d="M7541 5734 c0 -11 3 -14 6 -6 3 7 2 16 -1 19 -3 4 -6 -2 -5 -13z"/>
<path d="M7725 5680 c3 -5 8 -10 11 -10 2 0 4 5 4 10 0 6 -5 10 -11 10 -5 0
-7 -4 -4 -10z"/>
<path d="M7631 5669 c-1 -9 7 -23 17 -30 15 -12 16 -12 6 1 -6 8 -14 22 -17
30 -5 13 -6 12 -6 -1z"/>
<path d="M7878 5241 c-8 -10 -22 -21 -29 -23 -8 -3 -11 -8 -7 -12 3 -4 21 6
40 23 18 17 28 31 23 31 -6 0 -18 -8 -27 -19z"/>
<path d="M7366 5074 c-11 -8 -16 -14 -10 -14 13 0 39 18 34 24 -3 2 -14 -2
-24 -10z"/>
<path d="M4567 4816 c-4 -9 -3 -15 2 -11 5 3 11 0 13 -7 3 -7 7 -5 11 6 4 9 3
15 -2 11 -5 -3 -11 0 -13 7 -3 7 -7 5 -11 -6z"/>
<path d="M7131 4364 c0 -11 3 -14 6 -6 3 7 2 16 -1 19 -3 4 -6 -2 -5 -13z"/>
<path d="M5322 4370 c0 -14 2 -19 5 -12 2 6 2 18 0 25 -3 6 -5 1 -5 -13z"/>
<path d="M8021 4138 c-19 -18 -31 -27 -27 -20 8 13 -11 16 -38 6 -23 -9 -20
-44 3 -44 22 0 76 42 92 71 14 26 9 24 -30 -13z"/>
<path d="M7066 3750 c5 -8 11 -33 15 -55 l6 -40 2 36 c0 19 -6 44 -15 55 -8
10 -12 12 -8 4z"/>
<path d="M5802 3015 c0 -16 2 -22 5 -12 2 9 2 23 0 30 -3 6 -5 -1 -5 -18z"/>
<path d="M5768 2809 c-17 -18 -22 -29 -13 -29 7 0 23 14 35 30 27 38 14 37
-22 -1z"/>
<path d="M6320 3136 c0 -2 7 -9 15 -16 13 -11 14 -10 9 4 -5 14 -24 23 -24 12z"/>
<path d="M5960 3079 c0 -5 11 -9 25 -9 14 0 25 2 25 4 0 2 -11 6 -25 8 -14 3
-25 1 -25 -3z"/>
<path d="M6309 3053 c-13 -16 -12 -17 4 -4 9 7 17 15 17 17 0 8 -8 3 -21 -13z"/>
<path d="M6110 2970 c-13 -8 -12 -10 3 -10 9 0 17 5 17 10 0 12 -1 12 -20 0z"/>
<path d="M9060 2820 c8 -5 20 -10 25 -10 6 0 3 5 -5 10 -8 5 -19 10 -25 10 -5
0 -3 -5 5 -10z"/>
<path d="M9068 2663 c7 -3 16 -2 19 1 4 3 -2 6 -13 5 -11 0 -14 -3 -6 -6z"/>
<path d="M6835 2863 c-81 -29 -139 -68 -202 -137 -96 -105 -143 -226 -143
-367 0 -135 77 -300 173 -373 18 -14 60 -38 92 -53 54 -25 71 -28 170 -28 103
0 114 2 177 32 81 38 157 106 210 187 39 61 50 68 23 16 -9 -17 -13 -30 -11
-30 9 0 37 60 32 69 -3 4 4 32 15 62 12 31 23 89 26 135 14 207 -82 381 -256
467 -56 28 -76 32 -160 34 -73 3 -108 -1 -146 -14z m310 -38 c148 -74 245
-234 245 -403 0 -62 -11 -122 -21 -122 -5 0 -6 7 -3 15 5 11 2 14 -12 8 -20
-7 -34 -22 -34 -37 0 -5 7 -3 15 4 12 10 15 9 15 -5 0 -13 -5 -16 -22 -10 -13
4 -55 12 -94 19 -46 8 -79 20 -94 34 -20 18 -24 19 -37 6 -21 -21 -24 -17 -12
13 14 38 3 86 -27 123 -14 16 -21 30 -16 30 6 0 17 3 26 6 10 4 20 -5 32 -27
l17 -33 19 24 c28 35 40 10 33 -64 -6 -53 -5 -58 9 -47 25 21 56 95 55 132
l-1 34 -7 -35 c-7 -34 -37 -100 -46 -100 -2 0 3 20 12 46 8 25 12 48 9 51 -3
4 -6 -2 -6 -13 -1 -15 -4 -14 -16 9 -18 33 -25 34 -43 5 l-13 -22 -15 28 c-13
25 -18 27 -54 21 -26 -5 -45 -3 -54 5 -11 9 -15 9 -15 1 0 -6 16 -21 35 -32
42 -25 55 -46 55 -91 0 -66 -65 -128 -134 -128 -55 0 -107 34 -116 75 -2 6 -5
16 -7 23 -9 21 18 72 41 77 45 10 93 9 83 -2 -10 -9 14 -34 26 -26 7 4 8 0 4
-11 -4 -10 -7 -22 -7 -27 0 -19 -21 -8 -30 15 -13 36 -42 49 -68 30 -27 -18
-28 -54 -4 -84 24 -30 98 -32 119 -4 24 33 16 80 -18 106 -64 49 -79 67 -80
100 -1 18 -3 26 -5 18 -7 -25 -43 -43 -59 -30 -11 9 -17 6 -31 -15 -15 -24
-17 -24 -30 -8 -13 17 -15 16 -34 -7 l-20 -25 0 27 c0 35 36 132 55 148 13 11
15 6 15 -31 0 -24 5 -51 11 -59 8 -12 9 -10 5 10 -3 14 -6 48 -6 75 l-1 50
-29 -34 c-55 -64 -69 -143 -45 -241 6 -23 4 -22 -11 5 -12 21 -18 52 -18 102
-1 81 -14 68 -15 -15 -1 -45 -3 -51 -15 -40 -8 7 -13 15 -11 18 2 3 -8 6 -20
6 -14 1 -26 -5 -29 -15 -3 -9 -3 2 0 24 5 36 28 84 72 153 9 14 10 22 3 22 -6
0 -11 -7 -11 -15 0 -20 -29 -19 -37 2 -4 10 3 24 21 40 15 12 24 23 20 23 -4
0 -5 2 -2 5 3 3 18 1 33 -5 22 -9 26 -8 18 2 -8 11 -9 21 -4 44 0 3 10 -4 21
-17 l21 -24 -13 23 c-11 20 -11 25 5 37 11 7 25 11 33 8 8 -3 14 -2 13 3 -4
21 2 26 16 14 12 -10 15 -10 15 3 0 18 41 31 51 16 4 -7 9 -4 13 6 5 15 19 17
104 13 84 -3 106 -8 157 -33z m-521 -204 c-11 -9 -18 -23 -16 -30 3 -9 0 -11
-7 -6 -8 4 -11 1 -9 -10 4 -25 -18 -30 -25 -5 -3 11 -1 18 4 14 10 -6 33 44
30 64 -2 11 2 11 20 1 23 -12 23 -12 3 -28z m-49 -99 c0 -18 -20 -15 -23 4 -3
10 1 15 10 12 7 -3 13 -10 13 -16z m339 -54 c5 -4 -4 -6 -22 -6 -34 1 -82 -33
-82 -59 0 -7 -4 -13 -9 -13 -4 0 -6 11 -4 24 5 26 -17 40 -49 30 -17 -5 -19
-3 -13 18 10 32 13 34 29 13 15 -21 36 -12 36 16 0 22 4 23 30 9 16 -8 22 -6
32 10 12 19 13 19 27 -8 8 -15 19 -30 25 -34z m-344 1 c0 -11 -27 -12 -34 0
-3 4 -3 11 0 14 8 8 34 -3 34 -14z m-20 -34 c10 -12 10 -15 -4 -15 -9 0 -16 7
-16 15 0 8 2 15 4 15 2 0 9 -7 16 -15z m0 -44 c0 -5 -7 -11 -14 -14 -10 -4
-13 -1 -9 9 6 15 23 19 23 5z m0 -46 c0 -8 -4 -15 -9 -15 -5 0 -11 7 -15 15
-3 9 0 15 9 15 8 0 15 -7 15 -15z m10 -45 c0 -5 -4 -10 -9 -10 -6 0 -13 5 -16
10 -3 6 1 10 9 10 9 0 16 -4 16 -10z m68 -87 c2 -24 -1 -33 -17 -38 -26 -8
-41 1 -41 25 0 34 12 51 34 48 15 -2 22 -11 24 -35z m44 -3 c5 0 8 7 4 15 -3
8 -2 15 3 15 16 0 21 -13 9 -27 -8 -10 -8 -17 0 -25 7 -7 12 -17 12 -22 -1 -6
-10 0 -20 13 -15 18 -20 19 -20 7 0 -9 -4 -16 -8 -16 -4 0 -6 17 -3 38 3 20 6
29 9 20 2 -10 8 -18 14 -18z m83 -6 c19 -46 19 -47 -5 -32 -17 11 -22 10 -31
-2 -9 -12 -10 -12 -5 3 3 11 9 30 12 43 8 32 11 31 29 -12z m85 19 c0 -2 -8
-3 -17 -1 -14 2 -18 -4 -18 -30 0 -36 -18 -38 -23 -2 -4 27 22 52 44 43 8 -3
14 -7 14 -10z m500 7 c12 -8 11 -10 -7 -10 -13 0 -23 5 -23 10 0 13 11 13 30
0z m-422 -16 c5 -9 7 -25 5 -35 -10 -37 -63 -33 -63 5 0 41 40 61 58 30z m71
-54 c1 -10 -6 -7 -18 9 l-19 25 -5 -25 c-2 -14 -5 -6 -6 21 l-1 45 25 -30 c13
-16 24 -37 24 -45z m11 50 c0 -5 -4 -10 -10 -10 -5 0 -10 5 -10 10 0 6 5 10
10 10 6 0 10 -4 10 -10z m100 0 c0 -5 -10 -9 -22 -7 -18 2 -23 -3 -23 -23 0
-21 4 -25 25 -22 18 2 22 0 13 -9 -28 -28 -79 25 -53 56 14 17 60 20 60 5z
m74 -12 c23 -38 -35 -78 -61 -42 -17 23 -16 29 3 49 20 19 43 16 58 -7z m36
-17 c0 -22 -4 -43 -10 -46 -6 -4 -10 12 -10 39 0 25 5 46 10 46 6 0 10 -18 10
-39z m60 -8 c5 -7 10 -18 10 -25 0 -7 -9 -2 -20 12 l-20 25 0 -28 c0 -16 -4
-26 -8 -23 -4 2 -6 24 -4 47 4 39 6 41 18 23 7 -10 18 -24 24 -31z m20 31 c0
-8 -5 -12 -10 -9 -6 4 -8 11 -5 16 9 14 15 11 15 -7z m-445 -24 c0 -22 -21
-22 -22 1 -1 12 3 19 10 16 7 -2 12 -10 12 -17z m-240 -60 c3 -5 1 -10 -4 -10
-6 0 -11 5 -11 10 0 6 2 10 4 10 3 0 8 -4 11 -10z m276 -20 c28 -15 26 -74 -3
-94 -12 -9 -33 -16 -46 -16 -23 0 -24 2 -17 51 5 39 4 54 -6 60 -20 13 48 11
72 -1z m393 -5 c-4 -8 -11 -12 -16 -9 -6 4 -5 10 3 15 19 12 19 11 13 -6z
m-259 -5 c4 -7 -2 -9 -19 -4 -34 8 -56 -10 -56 -46 0 -33 22 -54 50 -47 11 3
18 1 14 -4 -9 -14 -51 -10 -68 7 -21 20 -20 63 1 86 17 19 68 25 78 8z m-365
-20 c0 -5 -4 -10 -10 -10 -5 0 -10 5 -10 10 0 6 5 10 10 10 6 0 10 -4 10 -10z
m577 -9 c0 -11 -5 -17 -9 -15 -11 7 -10 34 1 34 6 0 9 -9 8 -19z m-547 -21 c0
-5 -2 -10 -4 -10 -3 0 -8 5 -11 10 -3 6 -1 10 4 10 6 0 11 -4 11 -10z m515 0
c3 -5 -1 -10 -10 -10 -9 0 -13 5 -10 10 3 6 8 10 10 10 2 0 7 -4 10 -10z
m-485 -24 c0 -3 -4 -8 -10 -11 -5 -3 -10 -1 -10 4 0 6 5 11 10 11 6 0 10 -2
10 -4z m460 -6 c0 -5 -4 -10 -9 -10 -6 0 -13 5 -16 10 -3 6 1 10 9 10 9 0 16
-4 16 -10z m-30 -21 c0 -6 -4 -7 -10 -4 -5 3 -10 11 -10 16 0 6 5 7 10 4 6 -3
10 -11 10 -16z m-400 1 c0 -5 -4 -10 -10 -10 -5 0 -10 5 -10 10 0 6 5 10 10
10 6 0 10 -4 10 -10z m40 -20 c0 -5 -7 -7 -15 -4 -8 4 -15 8 -15 10 0 2 7 4
15 4 8 0 15 -4 15 -10z m330 0 c0 -5 -4 -10 -9 -10 -6 0 -13 5 -16 10 -3 6 1
10 9 10 9 0 16 -4 16 -10z"/>
<path d="M6989 2783 c-13 -16 -12 -17 4 -4 16 13 21 21 13 21 -2 0 -10 -8 -17
-17z"/>
<path d="M6939 2773 c-13 -16 -12 -17 4 -4 16 13 21 21 13 21 -2 0 -10 -8 -17
-17z"/>
<path d="M7032 2771 c-10 -6 -10 -14 4 -37 24 -42 13 -74 -46 -139 -53 -58
-59 -79 -35 -111 13 -17 13 -16 3 12 -10 27 -8 35 11 63 15 20 29 30 38 27 20
-8 80 21 88 42 5 13 1 12 -17 -4 -13 -12 -33 -24 -45 -27 -21 -5 -21 -4 -6 19
8 13 19 22 23 19 5 -3 12 0 16 6 5 8 3 9 -5 5 -9 -6 -11 1 -6 28 5 25 3 43 -8
60 -12 17 -13 26 -4 35 13 13 8 14 -11 2z"/>
<path d="M6837 2752 c-10 -10 -17 -22 -17 -27 0 -5 6 0 14 11 13 17 14 15 9
-24 -5 -34 -2 -46 13 -57 26 -20 48 -18 75 5 l24 20 -37 -16 c-31 -15 -40 -15
-53 -4 -17 14 -17 55 0 93 10 22 -7 22 -28 -1z"/>
<path d="M7085 2740 c-3 -5 -1 -10 4 -10 6 0 11 5 11 10 0 6 -2 10 -4 10 -3 0
-8 -4 -11 -10z"/>
<path d="M6889 2723 c-13 -16 -12 -17 4 -4 16 13 21 21 13 21 -2 0 -10 -8 -17
-17z"/>
<path d="M7160 2716 c0 -2 8 -10 18 -17 15 -13 16 -12 3 4 -13 16 -21 21 -21
13z"/>
<path d="M6920 2699 c-12 -8 -11 -9 5 -5 11 3 27 1 35 -4 12 -8 9 -15 -20 -46
l-35 -37 32 22 c28 19 52 57 41 66 -12 10 -45 13 -58 4z"/>
<path d="M6640 2690 c-9 -6 -10 -10 -3 -10 6 0 15 5 18 10 8 12 4 12 -15 0z"/>
<path d="M7142 2640 c1 -42 1 -43 7 -11 l6 34 23 -41 c12 -22 22 -50 22 -63 0
-12 3 -20 6 -16 13 13 -7 74 -36 107 l-29 35 1 -45z"/>
<path d="M6700 2639 c-7 -11 -10 -23 -7 -25 2 -2 9 7 15 21 14 30 7 33 -8 4z"/>
<path d="M6816 2625 c7 -44 14 -59 14 -30 0 15 3 16 12 7 7 -7 17 -12 22 -12
6 0 0 7 -12 16 -13 9 -28 26 -33 38 -6 15 -7 10 -3 -19z"/>
<path d="M7087 2590 c-14 -22 -24 -40 -22 -40 8 0 58 71 53 75 -2 3 -16 -13
-31 -35z"/>
<path d="M7232 2575 c0 -16 2 -22 5 -12 2 9 2 23 0 30 -3 6 -5 -1 -5 -18z"/>
<path d="M7131 2554 c0 -11 3 -14 6 -6 3 7 2 16 -1 19 -3 4 -6 -2 -5 -13z"/>
<path d="M7211 2514 c0 -11 3 -14 6 -6 3 7 2 16 -1 19 -3 4 -6 -2 -5 -13z"/>
<path d="M7340 2510 c0 -5 5 -10 11 -10 5 0 7 5 4 10 -3 6 -8 10 -11 10 -2 0
-4 -4 -4 -10z"/>
<path d="M7330 2476 c0 -2 7 -9 15 -16 9 -7 15 -8 15 -2 0 5 -7 12 -15 16 -8
3 -15 4 -15 2z"/>
<path d="M7370 2432 c0 -7 -7 -12 -15 -12 -8 0 -15 -4 -15 -10 0 -5 7 -10 15
-10 17 0 32 27 21 37 -3 4 -6 1 -6 -5z"/>
<path d="M7037 2378 c-11 -51 -47 -78 -105 -78 -33 0 -52 6 -69 22 -16 15 -22
17 -18 7 9 -25 53 -43 97 -42 67 3 113 46 106 101 -3 25 -4 24 -11 -10z"/>
<path d="M7340 2364 c0 -18 28 -25 34 -8 3 9 6 17 6 18 0 1 -9 2 -20 2 -11 0
-20 -6 -20 -12z"/>
<path d="M6590 2210 c0 -21 4 -30 13 -27 6 2 12 14 12 27 0 13 -6 25 -12 28
-9 2 -13 -7 -13 -28z"/>
<path d="M6874 2206 c-8 -22 3 -49 19 -43 6 2 12 14 12 27 0 27 -22 39 -31 16z"/>
<path d="M7124 2196 c-9 -22 2 -46 21 -46 12 0 15 8 13 27 -3 30 -25 42 -34
19z"/>
<path d="M6836 2093 c-3 -4 -6 -26 -6 -50 0 -37 3 -44 17 -41 24 4 44 47 33
69 -10 19 -35 31 -44 22z"/>
<path d="M7264 2038 l-29 -33 33 29 c17 17 32 31 32 33 0 8 -8 1 -36 -29z"/>
<path d="M7136 1935 c-11 -8 -15 -15 -9 -15 6 0 16 7 23 15 16 19 11 19 -14 0z"/>
<path d="M8028 2614 c-39 -21 -35 -28 5 -8 37 19 44 24 31 24 -5 -1 -21 -8
-36 -16z"/>
<path d="M8044 2496 c-10 -8 -17 -16 -14 -19 3 -2 14 4 24 14 23 22 18 25 -10
5z"/>
<path d="M8408 2493 c7 -3 16 -2 19 1 4 3 -2 6 -13 5 -11 0 -14 -3 -6 -6z"/>
<path d="M8530 2491 c0 -8 41 -23 47 -17 2 1 -8 8 -22 14 -14 6 -25 8 -25 3z"/>
<path d="M8712 2478 c7 -15 15 -23 17 -17 2 6 -4 18 -13 27 -15 15 -15 15 -4
-10z"/>
<path d="M8428 2463 c7 -3 16 -2 19 1 4 3 -2 6 -13 5 -11 0 -14 -3 -6 -6z"/>
<path d="M8530 2445 c-25 -10 -29 -14 -14 -14 11 -1 29 6 40 14 23 17 19 17
-26 0z"/>
<path d="M8295 2420 c-28 -7 -28 -8 -5 -9 14 0 32 4 40 9 17 11 8 11 -35 0z"/>
<path d="M8403 2423 c9 -2 25 -2 35 0 9 3 1 5 -18 5 -19 0 -27 -2 -17 -5z"/>
<path d="M9235 2406 c-11 -7 -33 -21 -48 -30 -16 -10 -26 -20 -24 -23 6 -5 97
54 97 62 0 7 -2 6 -25 -9z"/>
<path d="M6350 2211 c0 -12 5 -21 10 -21 6 0 10 6 10 14 0 8 -4 18 -10 21 -5
3 -10 -3 -10 -14z"/>
<path d="M6308 1418 c-7 -18 2 -39 13 -32 12 7 12 44 0 44 -5 0 -11 -6 -13
-12z"/>
<path d="M8291 2124 c0 -11 3 -14 6 -6 3 7 2 16 -1 19 -3 4 -6 -2 -5 -13z"/>
<path d="M8470 2120 c0 -5 5 -10 10 -10 6 0 10 5 10 10 0 6 -4 10 -10 10 -5 0
-10 -4 -10 -10z"/>
<path d="M8330 1955 c0 -5 5 -17 10 -25 5 -8 10 -10 10 -5 0 6 -5 17 -10 25
-5 8 -10 11 -10 5z"/>
<path d="M8451 1934 c0 -11 3 -14 6 -6 3 7 2 16 -1 19 -3 4 -6 -2 -5 -13z"/>
<path d="M8006 1641 c-3 -5 1 -11 9 -15 8 -3 15 -1 15 4 0 13 -18 22 -24 11z"/>
<path d="M7080 1667 c-12 -18 -37 -43 -54 -55 -17 -12 -25 -22 -19 -22 7 0 15
5 18 11 4 6 14 8 22 5 8 -3 12 -2 9 3 -8 12 19 33 29 23 5 -4 5 -2 1 5 -4 7 1
24 10 38 24 37 10 30 -16 -8z"/>
<path d="M6951 1603 c-1 -17 5 -23 19 -23 11 0 20 5 20 10 0 6 -6 10 -14 10
-8 0 -17 6 -19 13 -3 6 -6 2 -6 -10z"/>
<path d="M7258 1673 c-28 -30 -48 -73 -47 -101 0 -9 6 3 14 27 7 24 26 56 41
72 15 16 25 29 23 29 -3 0 -17 -12 -31 -27z"/>
<path d="M7816 1141 c-4 -5 -2 -12 3 -15 5 -4 12 -2 15 3 4 5 2 12 -3 15 -5 4
-12 2 -15 -3z"/>
<path d="M6141 346 c-16 -19 -11 -29 8 -17 7 5 12 14 9 21 -3 9 -8 7 -17 -4z"/>
</g>
</svg>
